<?xml version="1.0" encoding="UTF-8" standalone="no"?>
<!-- Created with Inkscape (http://www.inkscape.org/) -->

<svg
   version="1.1"
   id="svg57"
   width="1294"
   height="410.66666"
   viewBox="0 0 1294 410.66666"
   sodipodi:docname="logo_v5.svg"
   inkscape:version="1.1.2 (b8e25be8, 2022-02-05)"
   xmlns:inkscape="http://www.inkscape.org/namespaces/inkscape"
   xmlns:sodipodi="http://sodipodi.sourceforge.net/DTD/sodipodi-0.dtd"
   xmlns="http://www.w3.org/2000/svg"
   xmlns:svg="http://www.w3.org/2000/svg">
  <defs
     id="defs61" />
  <sodipodi:namedview
     id="namedview59"
     pagecolor="#ffffff"
     bordercolor="#666666"
     borderopacity="1.0"
     inkscape:pageshadow="2"
     inkscape:pageopacity="0.0"
     inkscape:pagecheckerboard="0"
     showgrid="false"
     inkscape:zoom="0.99381762"
     inkscape:cx="352.17729"
     inkscape:cy="205.77216"
     inkscape:window-width="3440"
     inkscape:window-height="1387"
     inkscape:window-x="1512"
     inkscape:window-y="25"
     inkscape:window-maximized="1"
     inkscape:current-layer="g63" />
  <g
     inkscape:groupmode="layer"
     inkscape:label="Image"
     id="g63">
    <g
       id="g239"
       style="fill:#f9f9f9">
      <path
         style="fill:#f9f9f9;stroke-width:0.666667"
         d="m 77.385967,382.94444 c 0.032,-0.77663 0.18996,-0.9346 0.402773,-0.40278 0.19258,0.48125 0.1689,1.05625 -0.0526,1.27778 -0.221533,0.22153 -0.379093,-0.17223 -0.350147,-0.875 z m 21.2807,-4.27778 c 0.55,-0.35544 1.3,-0.64625 1.666663,-0.64625 0.36667,0 0.21667,0.29081 -0.33333,0.64625 -0.55,0.35544 -1.3,0.64625 -1.666667,0.64625 -0.366666,0 -0.216666,-0.29081 0.333334,-0.64625 z m 11.666663,-6 -2.66666,-0.47746 2.83333,-0.0946 c 1.55833,-0.052 2.83333,0.20539 2.83333,0.57206 0,0.36667 -0.075,0.62409 -0.16666,0.57206 -0.0917,-0.052 -1.36667,-0.30946 -2.83334,-0.57206 z M 99.512687,371.538 c 0.648643,-0.16903 1.548643,-0.15791 2.000003,0.0247 0.45135,0.18262 -0.0794,0.32092 -1.17936,0.30733 -1.099997,-0.0136 -1.46929,-0.163 -0.820643,-0.33203 z m 4.362313,0.007 c 0.48125,-0.19258 1.05625,-0.1689 1.27778,0.0526 0.22153,0.22152 -0.17223,0.37909 -0.875,0.35014 -0.77663,-0.032 -0.9346,-0.18996 -0.40278,-0.40277 z m -29.822367,-1.26682 c 0.032,-0.77663 0.18996,-0.9346 0.402774,-0.40278 0.19258,0.48125 0.1689,1.05626 -0.0526,1.27778 -0.221534,0.22153 -0.379094,-0.17222 -0.350147,-0.875 z M 87.875,370.878 c 0.481247,-0.19258 1.056247,-0.1689 1.27778,0.0526 0.221527,0.22153 -0.172227,0.37909 -0.875,0.35015 -0.776633,-0.032 -0.9346,-0.18996 -0.40278,-0.40278 z m 2.97102,-0.007 c 0.648647,-0.16902 1.548647,-0.15791 2,0.0247 0.451353,0.18262 -0.07935,0.32091 -1.179353,0.30732 -1.1,-0.0136 -1.469294,-0.163 -0.820647,-0.33202 z m 69.66175,-19.34284 c 0.82928,-0.15946 2.02928,-0.15341 2.66667,0.0135 0.63739,0.16686 -0.0411,0.29734 -1.50777,0.28994 -1.46667,-0.007 -1.98817,-0.14393 -1.1589,-0.30339 z m -6.63277,-0.65057 c 0.48125,-0.19258 1.05625,-0.1689 1.27778,0.0526 0.22153,0.22153 -0.17223,0.37909 -0.875,0.35015 -0.77663,-0.032 -0.9346,-0.18996 -0.40278,-0.40278 z m -8.03389,-0.68277 c 0.82927,-0.15946 2.02927,-0.1534 2.66666,0.0135 0.6374,0.16686 -0.0411,0.29733 -1.50777,0.28993 -1.46667,-0.007 -1.98817,-0.14392 -1.15889,-0.30338 z m -6.63278,-0.65056 c 0.48125,-0.19258 1.05625,-0.1689 1.27778,0.0526 0.22153,0.22152 -0.17222,0.37909 -0.875,0.35014 -0.77663,-0.032 -0.9346,-0.18996 -0.40278,-0.40277 z m -6.04166,-0.65278 c 0.45833,-0.18494 1.20833,-0.18494 1.66666,0 0.45834,0.18494 0.0833,0.33626 -0.83333,0.33626 -0.91667,0 -1.29167,-0.15132 -0.83333,-0.33626 z M 125.5,348.20711 c 0.64167,-0.16768 1.69167,-0.16768 2.33333,0 0.64167,0.16768 0.11667,0.30488 -1.16666,0.30488 -1.28334,0 -1.80834,-0.1372 -1.16667,-0.30488 z m -6.29167,-0.66252 c 0.48125,-0.19258 1.05625,-0.1689 1.27778,0.0526 0.22153,0.22152 -0.17222,0.37909 -0.875,0.35014 -0.77663,-0.032 -0.9346,-0.18996 -0.40278,-0.40277 z m -8.03389,-0.68277 c 0.82927,-0.15946 2.02927,-0.15341 2.66667,0.0135 0.63739,0.16686 -0.0411,0.29733 -1.50778,0.28993 -1.46666,-0.007 -1.98816,-0.14393 -1.15889,-0.30339 z m -6.63277,-0.65057 c 0.48124,-0.19258 1.05624,-0.1689 1.27778,0.0526 0.22152,0.22153 -0.17223,0.3791 -0.875,0.35015 -0.77664,-0.032 -0.9346,-0.18996 -0.40278,-0.40277 z m -7.36723,-0.68276 c 0.829273,-0.15946 2.029273,-0.15341 2.666667,0.0135 0.637393,0.16686 -0.04113,0.29734 -1.507774,0.28994 -1.466666,-0.007 -1.988166,-0.14393 -1.158893,-0.30339 z m -6.341107,-0.65472 c 0.641667,-0.16768 1.691667,-0.16768 2.333334,0 0.641666,0.16769 0.116666,0.30489 -1.166667,0.30489 -1.283333,0 -1.808333,-0.1372 -1.166667,-0.30489 z M 209.33333,332.66666 c -1.5515,-0.49688 -1.56574,-0.53835 -0.20601,-0.60021 0.80336,-0.0365 1.64607,0.23354 1.87268,0.60021 0.22661,0.36667 0.31932,0.63676 0.20601,0.60021 -0.1133,-0.0365 -0.95601,-0.30664 -1.87268,-0.60021 z m -5.45833,-1.12207 c 0.48125,-0.19258 1.05625,-0.1689 1.27778,0.0526 0.22153,0.22152 -0.17223,0.37909 -0.875,0.35014 -0.77663,-0.032 -0.9346,-0.18996 -0.40278,-0.40277 z m -5.69565,-0.67326 c 0.64865,-0.16902 1.54865,-0.15791 2,0.0247 0.45136,0.18262 -0.0794,0.32091 -1.17935,0.30732 -1.1,-0.0136 -1.46929,-0.163 -0.82065,-0.33202 z m -16.01268,-1.99756 c 0.64166,-0.16768 1.69166,-0.16768 2.33333,0 0.64167,0.16769 0.11667,0.30489 -1.16667,0.30489 -1.28333,0 -1.80833,-0.1372 -1.16666,-0.30489 z M 62.719298,327.61111 c 0.03199,-0.77664 0.189961,-0.9346 0.402778,-0.40278 0.192581,0.48124 0.168896,1.05625 -0.05263,1.27778 -0.221528,0.22152 -0.379094,-0.17223 -0.350148,-0.875 z M 171.51269,327.538 c 0.64864,-0.16903 1.54864,-0.15791 2,0.0247 0.45135,0.18262 -0.0794,0.32092 -1.17936,0.30733 -1.1,-0.0136 -1.46929,-0.163 -0.82064,-0.33203 z m -4,-0.66667 c 0.64864,-0.16902 1.54864,-0.15791 2,0.0247 0.45135,0.18262 -0.0794,0.32091 -1.17936,0.30732 -1.1,-0.0136 -1.46929,-0.163 -0.82064,-0.33202 z m -11.34602,-1.33089 c 0.64166,-0.16768 1.69166,-0.16768 2.33333,0 0.64167,0.16769 0.11667,0.30489 -1.16667,0.30489 -1.28333,0 -1.80833,-0.1372 -1.16666,-0.30489 z m -10.33334,-1.3153 c 0.45834,-0.18494 1.20834,-0.18494 1.66667,0 0.45833,0.18494 0.0833,0.33626 -0.83333,0.33626 -0.91667,0 -1.29167,-0.15132 -0.83334,-0.33626 z m -5.29166,-0.68055 c 0.48124,-0.19258 1.05624,-0.1689 1.27778,0.0526 0.22152,0.22152 -0.17223,0.37909 -0.875,0.35014 -0.77664,-0.032 -0.9346,-0.18996 -0.40278,-0.40277 z m -10.36232,-1.33992 c 0.64865,-0.16903 1.54865,-0.15792 2,0.0247 0.45136,0.18262 -0.0794,0.32091 -1.17935,0.30733 -1.1,-0.0136 -1.46929,-0.163 -0.82065,-0.33203 z m -4.97102,-0.66008 c 0.48125,-0.19258 1.05625,-0.1689 1.27778,0.0526 0.22153,0.22152 -0.17222,0.37909 -0.875,0.35014 -0.77663,-0.032 -0.9346,-0.18996 -0.40278,-0.40277 z m -5.69564,-0.67326 c 0.64864,-0.16902 1.54864,-0.15791 2,0.0247 0.45135,0.18262 -0.0794,0.32091 -1.17936,0.30732 -1.1,-0.0136 -1.46929,-0.163 -0.82064,-0.33202 z m -16,-2 c 0.64864,-0.16902 1.54864,-0.15791 2,0.0247 0.45135,0.18262 -0.0794,0.32091 -1.17936,0.30732 -1.1,-0.0136 -1.46929,-0.163 -0.82064,-0.33202 z m -4.971023,-0.66008 c 0.481246,-0.19258 1.056246,-0.1689 1.27778,0.0526 0.221523,0.22153 -0.172227,0.3791 -0.875,0.35015 -0.776634,-0.032 -0.9346,-0.18996 -0.40278,-0.40277 z m 155.291663,-2.65278 c 0.45834,-0.18494 1.20834,-0.18494 1.66667,0 0.45833,0.18494 0.0833,0.33626 -0.83333,0.33626 -0.91667,0 -1.29167,-0.15132 -0.83334,-0.33626 z M 248.5,314.89181 c 0.45833,-0.18494 1.20833,-0.18494 1.66667,0 0.45833,0.18494 0.0833,0.33626 -0.83334,0.33626 -0.91666,0 -1.29166,-0.15132 -0.83333,-0.33626 z M 58.719298,312.94444 c 0.03199,-0.77663 0.189961,-0.9346 0.402778,-0.40278 0.192581,0.48125 0.168896,1.05625 -0.05263,1.27778 -0.221528,0.22153 -0.379094,-0.17223 -0.350148,-0.875 z m 181.114032,0.61403 c 0.45834,-0.18494 1.20834,-0.18494 1.66667,0 0.45833,0.18494 0.0833,0.33626 -0.83333,0.33626 -0.91667,0 -1.29167,-0.15132 -0.83334,-0.33626 z m -3.29166,-0.68055 c 0.48124,-0.19258 1.05625,-0.1689 1.27778,0.0526 0.22152,0.22153 -0.17223,0.37909 -0.875,0.35015 -0.77664,-0.032 -0.9346,-0.18996 -0.40278,-0.40278 z m -5.375,-0.65278 c 0.45833,-0.18494 1.20833,-0.18494 1.66666,0 0.45834,0.18494 0.0833,0.33626 -0.83333,0.33626 -0.91667,0 -1.29167,-0.15132 -0.83333,-0.33626 z m -3.29167,-0.68055 c 0.48125,-0.19258 1.05625,-0.1689 1.27778,0.0526 0.22153,0.22152 -0.17223,0.37909 -0.875,0.35014 -0.77663,-0.032 -0.9346,-0.18996 -0.40278,-0.40277 z m -8.70833,-1.31945 c 0.45833,-0.18494 1.20833,-0.18494 1.66666,0 0.45834,0.18494 0.0833,0.33626 -0.83333,0.33626 -0.91667,0 -1.29167,-0.15132 -0.83333,-0.33626 z m -4,-0.66667 c 0.45833,-0.18494 1.20833,-0.18494 1.66666,0 0.45834,0.18494 0.0833,0.33626 -0.83333,0.33626 -0.91667,0 -1.29167,-0.15132 -0.83333,-0.33626 z M 210.5,308.89181 c 0.45833,-0.18494 1.20833,-0.18494 1.66667,0 0.45833,0.18494 0.0833,0.33626 -0.83334,0.33626 -0.91666,0 -1.29166,-0.15132 -0.83333,-0.33626 z m -153.114035,-1.2807 c 0.03199,-0.77663 0.18996,-0.9346 0.402778,-0.40278 0.19258,0.48125 0.168896,1.05625 -0.05263,1.27778 -0.221528,0.22152 -0.379094,-0.17223 -0.350146,-0.875 z m 149.822365,0.60014 c 0.48125,-0.19258 1.05626,-0.1689 1.27778,0.0526 0.22153,0.22153 -0.17222,0.3791 -0.875,0.35015 -0.77663,-0.032 -0.9346,-0.18996 -0.40278,-0.40277 z m -9.375,-1.31944 c 0.45834,-0.18494 1.20834,-0.18494 1.66667,0 0.45833,0.18494 0.0833,0.33626 -0.83333,0.33626 -0.91667,0 -1.29167,-0.15132 -0.83334,-0.33626 z m -3.29166,-0.68055 c 0.48124,-0.19258 1.05625,-0.1689 1.27778,0.0526 0.22152,0.22152 -0.17223,0.37909 -0.875,0.35014 -0.77664,-0.032 -0.9346,-0.18996 -0.40278,-0.40277 z m -5.375,-0.65278 c 0.45833,-0.18494 1.20833,-0.18494 1.66666,0 0.45834,0.18494 0.0833,0.33626 -0.83333,0.33626 -0.91667,0 -1.29167,-0.15132 -0.83333,-0.33626 z m -3.29167,-0.68056 c 0.48125,-0.19258 1.05625,-0.1689 1.27778,0.0526 0.22153,0.22153 -0.17223,0.3791 -0.875,0.35015 -0.77663,-0.032 -0.9346,-0.18996 -0.40278,-0.40277 z m -8.70833,-1.31944 c 0.45833,-0.18494 1.20833,-0.18494 1.66666,0 0.45834,0.18494 0.0833,0.33626 -0.83333,0.33626 -0.91667,0 -1.29167,-0.15132 -0.83333,-0.33626 z m -3.29167,-0.68056 c 0.48125,-0.19258 1.05625,-0.1689 1.27778,0.0526 0.22153,0.22153 -0.17223,0.3791 -0.875,0.35015 -0.77663,-0.032 -0.9346,-0.18996 -0.40278,-0.40277 z m -8.70833,-1.31944 c 0.45833,-0.18494 1.20833,-0.18494 1.66666,0 0.45834,0.18494 0.0833,0.33626 -0.83333,0.33626 -0.91667,0 -1.29167,-0.15132 -0.83333,-0.33626 z M 156.5,300.22514 c 0.45833,-0.18494 1.20833,-0.18494 1.66667,0 0.45833,0.18494 0.0833,0.33626 -0.83334,0.33626 -0.91666,0 -1.29166,-0.15132 -0.83333,-0.33626 z M 293.66667,300 c 0.22661,-0.36667 0.71202,-0.66667 1.07868,-0.66667 0.36667,0 0.48126,0.3 0.25465,0.66667 -0.22661,0.36666 -0.71202,0.66666 -1.07869,0.66666 -0.36666,0 -0.48126,-0.3 -0.25464,-0.66666 z m -145.83334,-1.10819 c 0.45834,-0.18494 1.20834,-0.18494 1.66667,0 0.45833,0.18494 0.0833,0.33626 -0.83333,0.33626 -0.91667,0 -1.29167,-0.15132 -0.83334,-0.33626 z m 144.04167,-0.0139 c 0.48125,-0.19258 1.05625,-0.1689 1.27778,0.0526 0.22153,0.22153 -0.17223,0.3791 -0.875,0.35015 -0.77663,-0.032 -0.9346,-0.18996 -0.40278,-0.40277 z m -147.33333,-0.66666 c 0.48124,-0.19258 1.05624,-0.1689 1.27778,0.0526 0.22152,0.22152 -0.17223,0.37909 -0.875,0.35014 -0.77664,-0.032 -0.9346,-0.18996 -0.40278,-0.40277 z M 557.5,298.20728 c 0.64167,-0.16768 1.69167,-0.16768 2.33333,0 0.64167,0.16768 0.11667,0.30488 -1.16666,0.30488 -1.28334,0 -1.80834,-0.1372 -1.16667,-0.30488 z m 9.33333,0 c 0.64167,-0.16768 1.69167,-0.16768 2.33334,0 0.64166,0.16768 0.11666,0.30488 -1.16667,0.30488 -1.28333,0 -1.80833,-0.1372 -1.16667,-0.30488 z m 166,0 c 0.64167,-0.16768 1.69167,-0.16768 2.33334,0 0.64166,0.16768 0.11666,0.30488 -1.16667,0.30488 -1.28333,0 -1.80833,-0.1372 -1.16667,-0.30488 z m 7.66667,0.018 c 0.45833,-0.18494 1.20833,-0.18494 1.66667,0 0.45833,0.18494 0.0833,0.33626 -0.83334,0.33626 -0.91666,0 -1.29166,-0.15132 -0.83333,-0.33626 z m 207.34113,-0.03 c 0.82927,-0.15946 2.02927,-0.15341 2.66667,0.0135 0.63733,0.16686 -0.0413,0.29734 -1.5078,0.28994 -1.46667,-0.007 -1.9882,-0.14393 -1.15887,-0.30339 z m 9.33334,0 c 0.82926,-0.15946 2.02926,-0.15341 2.66666,0.0135 0.63734,0.16686 -0.0413,0.29734 -1.5078,0.28994 -1.46666,-0.007 -1.9882,-0.14393 -1.15886,-0.30339 z m 203.67153,0.01 c 0.6487,-0.16903 1.5487,-0.15791 2,0.0247 0.4514,0.18262 -0.079,0.32092 -1.1793,0.30733 -1.1,-0.0136 -1.4693,-0.163 -0.8207,-0.33203 z m 5.654,0.0205 c 0.4583,-0.18494 1.2083,-0.18494 1.6667,0 0.4583,0.18494 0.083,0.33626 -0.8334,0.33626 -0.9166,0 -1.2916,-0.15132 -0.8333,-0.33626 z m -881.95833,-0.68069 c 0.48124,-0.19258 1.05625,-0.1689 1.27778,0.0526 0.22152,0.22153 -0.17223,0.37909 -0.875,0.35015 -0.77664,-0.032 -0.9346,-0.18996 -0.40278,-0.40278 z m 656,0 c 0.48126,-0.19258 1.05626,-0.1689 1.2778,0.0526 0.22153,0.22153 -0.17227,0.37909 -0.875,0.35015 -0.77667,-0.032 -0.9346,-0.18996 -0.4028,-0.40278 z m -804.70834,-0.65278 c 0.45834,-0.18494 1.20834,-0.18494 1.66667,0 0.45833,0.18494 0.0833,0.33626 -0.83333,0.33626 -0.91667,0 -1.29167,-0.15132 -0.83334,-0.33626 z M 277.875,296.21126 c 0.48125,-0.19258 1.05625,-0.1689 1.27778,0.0526 0.22153,0.22152 -0.17223,0.37909 -0.875,0.35014 -0.77663,-0.032 -0.9346,-0.18996 -0.40278,-0.40277 z m 64.44773,-79.5446 c 0,-44.18333 0.0797,-62.25833 0.17717,-40.16666 0.0974,22.09166 0.0974,58.24166 0,80.33333 -0.0975,22.09167 -0.17717,4.01667 -0.17717,-40.16667 z M 452.30895,264 c 0,-18.15 0.0857,-25.575 0.1905,-16.5 0.10478,9.075 0.10478,23.925 0,33 -0.10477,9.075 -0.1905,1.65 -0.1905,-16.5 z m 36.68044,-47.33334 c 0,-44.18333 0.0797,-62.25833 0.17718,-40.16666 0.0974,22.09166 0.0974,58.24166 0,80.33333 -0.0974,22.09167 -0.17718,4.01667 -0.17718,-40.16667 z m 111.26272,72.66667 c 0,-4.21667 0.10825,-5.94167 0.24055,-3.83333 0.1323,2.10833 0.1323,5.55833 0,7.66666 -0.1323,2.10834 -0.24055,0.38334 -0.24055,-3.83333 z m -473.08544,6.22515 c 0.45833,-0.18494 1.20833,-0.18494 1.66666,0 0.45834,0.18494 0.0833,0.33626 -0.83333,0.33626 -0.91667,0 -1.29167,-0.15132 -0.83333,-0.33626 z m 147.375,-0.0139 c 0.48124,-0.19258 1.05625,-0.1689 1.27778,0.0526 0.22152,0.22153 -0.17223,0.37909 -0.875,0.35015 -0.77664,-0.032 -0.9346,-0.18996 -0.40278,-0.40278 z m -150.70834,-0.6528 c 0.45834,-0.18494 1.20834,-0.18494 1.66667,0 0.45833,0.18494 0.0833,0.33626 -0.83333,0.33626 -0.91667,0 -1.29167,-0.15132 -0.83334,-0.33626 z M 267.875,294.21126 c 0.48125,-0.19258 1.05625,-0.1689 1.27778,0.0526 0.22153,0.22152 -0.17223,0.37909 -0.875,0.35014 -0.77663,-0.032 -0.9346,-0.18996 -0.40278,-0.40277 z m -152.70833,-0.65278 c 0.45833,-0.18494 1.20833,-0.18494 1.66666,0 0.45834,0.18494 0.0833,0.33626 -0.83333,0.33626 -0.91667,0 -1.29167,-0.15132 -0.83333,-0.33626 z m 145.375,-0.68056 c 0.48124,-0.19258 1.05625,-0.1689 1.27778,0.0526 0.22152,0.22153 -0.17223,0.3791 -0.875,0.35015 -0.77664,-0.032 -0.9346,-0.18996 -0.40278,-0.40277 z M 106.5,292.22514 c 0.45833,-0.18494 1.20833,-0.18494 1.66667,0 0.45833,0.18494 0.0833,0.33626 -0.83334,0.33626 -0.91666,0 -1.29166,-0.15132 -0.83333,-0.33626 z m 151.375,-0.0139 c 0.48125,-0.19258 1.05625,-0.1689 1.27778,0.0526 0.22153,0.22152 -0.17223,0.37909 -0.875,0.35014 -0.77663,-0.032 -0.9346,-0.18996 -0.40278,-0.40277 z m -154.70833,-0.6528 c 0.45833,-0.18494 1.20833,-0.18494 1.66666,0 0.45834,0.18494 0.0833,0.33626 -0.83333,0.33626 -0.91667,0 -1.29167,-0.15132 -0.83333,-0.33626 z m 147.375,-0.68056 c 0.48124,-0.19258 1.05625,-0.1689 1.27778,0.0526 0.22152,0.22153 -0.17223,0.3791 -0.875,0.35015 -0.77664,-0.032 -0.9346,-0.18996 -0.40278,-0.40277 z m -6.66667,-1.33333 c 0.48125,-0.19258 1.05625,-0.1689 1.27778,0.0526 0.22153,0.22153 -0.17223,0.37909 -0.875,0.35015 -0.77663,-0.032 -0.9346,-0.18996 -0.40278,-0.40278 z M 58.719298,286.94444 c 0.03199,-0.77663 0.189961,-0.9346 0.402778,-0.40278 0.192581,0.48125 0.168896,1.05626 -0.05263,1.27778 -0.221528,0.22153 -0.379094,-0.17222 -0.350148,-0.875 z M 233.875,287.54459 c 0.48125,-0.19258 1.05625,-0.1689 1.27778,0.0526 0.22153,0.22153 -0.17223,0.37909 -0.875,0.35015 -0.77663,-0.032 -0.9346,-0.18996 -0.40278,-0.40278 z M 596,286.33333 c 0.86117,-0.91667 1.71575,-1.66667 1.89909,-1.66667 0.18333,0 -0.37126,0.75 -1.23242,1.66667 C 595.8055,287.25 594.95091,288 594.76758,288 c -0.18333,0 0.37125,-0.75 1.23242,-1.66667 z m 107.62473,-0.5 -1.95806,-2.16667 2.16666,1.95806 C 705.853,287.44991 706.30647,288 705.7914,288 c -0.11473,0 -1.08973,-0.975 -2.16667,-2.16667 z M 223.875,285.54459 c 0.48125,-0.19258 1.05625,-0.1689 1.27778,0.0526 0.22153,0.22153 -0.17223,0.37909 -0.875,0.35015 -0.77663,-0.032 -0.9346,-0.18996 -0.40278,-0.40278 z m 982.7917,0.2037 c 0,-0.13843 0.525,-0.66343 1.1666,-1.16667 1.0574,-0.82924 1.081,-0.80566 0.2518,0.25171 -0.871,1.1105 -1.4184,1.46365 -1.4184,0.91496 z m -86.7518,-1.58163 c -0.8292,-1.05737 -0.8056,-1.08095 0.2518,-0.2517 1.1104,0.87091 1.4636,1.41837 0.9149,1.41837 -0.1384,0 -0.6634,-0.525 -1.1667,-1.16667 z m -903.37323,0.0446 c 0.48124,-0.19258 1.05625,-0.1689 1.27778,0.0526 0.22152,0.22153 -0.17223,0.3791 -0.875,0.35015 -0.77664,-0.032 -0.9346,-0.18996 -0.40278,-0.40277 z m -6.66667,-1.33333 c 0.48125,-0.19258 1.05625,-0.1689 1.27778,0.0526 0.22153,0.22153 -0.17223,0.37909 -0.875,0.35015 -0.77663,-0.032 -0.9346,-0.18996 -0.40278,-0.40278 z m -3.33333,-0.66667 c 0.48124,-0.19258 1.05625,-0.1689 1.27778,0.0526 0.22152,0.22153 -0.17223,0.3791 -0.875,0.35015 -0.77664,-0.032 -0.9346,-0.18996 -0.40278,-0.40277 z M 782,281 c 0.86113,-0.91667 1.71573,-1.66667 1.89907,-1.66667 0.18333,0 -0.37127,0.75 -1.2324,1.66667 -0.86114,0.91666 -1.71574,1.66666 -1.89907,1.66666 -0.18333,0 0.37127,-0.75 1.2324,-1.66666 z m -582.125,-0.12208 c 0.48125,-0.19258 1.05625,-0.1689 1.27778,0.0526 0.22153,0.22153 -0.17223,0.3791 -0.875,0.35015 -0.77663,-0.032 -0.9346,-0.18996 -0.40278,-0.40277 z m 701.72833,-1.04459 -1.27,-1.5 1.5,1.26999 c 1.4096,1.19348 1.80347,1.73001 1.27,1.73001 -0.12653,0 -0.80153,-0.675 -1.5,-1.5 z m 211.67957,-1.66667 -1.6162,-1.83333 1.8333,1.61621 c 1.0083,0.88892 1.8333,1.71392 1.8333,1.83333 0,0.52285 -0.5398,0.0973 -2.0504,-1.61621 z m -923.4079,0.71126 c 0.48125,-0.19258 1.05625,-0.1689 1.27778,0.0526 0.22153,0.22153 -0.17223,0.3791 -0.875,0.35015 -0.77663,-0.032 -0.9346,-0.18996 -0.40278,-0.40277 z M 49.385965,277.61111 c 0.03199,-0.77663 0.18996,-0.9346 0.402778,-0.40278 0.19258,0.48125 0.168896,1.05625 -0.05263,1.27778 -0.221528,0.22153 -0.379094,-0.17223 -0.350146,-0.875 z M 1216,277 c 0.8611,-0.91667 1.7157,-1.66667 1.8991,-1.66667 0.1833,0 -0.3713,0.75 -1.2324,1.66667 -0.8612,0.91666 -1.7158,1.66666 -1.8991,1.66666 -0.1833,0 0.3713,-0.75 1.2324,-1.66666 z m -1033.45833,0.54459 c 0.48124,-0.19258 1.05625,-0.1689 1.27778,0.0526 0.22152,0.22153 -0.17223,0.37909 -0.875,0.35015 -0.77664,-0.032 -0.9346,-0.18996 -0.40278,-0.40278 z m -6.66667,-1.33333 c 0.48125,-0.19258 1.05625,-0.1689 1.27778,0.0526 0.22153,0.22152 -0.17223,0.37909 -0.875,0.35014 -0.77663,-0.032 -0.9346,-0.18996 -0.40278,-0.40277 z M 786,276.41496 c 0,-0.13844 0.525,-0.66344 1.16667,-1.16667 1.0574,-0.82925 1.08093,-0.80567 0.25173,0.25171 -0.87093,1.1105 -1.4184,1.46365 -1.4184,0.91496 z m -613.45833,-0.87037 c 0.48124,-0.19258 1.05625,-0.1689 1.27778,0.0526 0.22152,0.22153 -0.17223,0.37909 -0.875,0.35015 -0.77664,-0.032 -0.9346,-0.18996 -0.40278,-0.40278 z m 827.40786,-1.37793 -1.6162,-1.83333 1.83337,1.61621 c 1.0083,0.88892 1.8333,1.71392 1.8333,1.83333 0,0.52285 -0.5399,0.0973 -2.05047,-1.61621 z m -834.07453,0.0446 c 0.48125,-0.19258 1.05625,-0.1689 1.27778,0.0526 0.22153,0.22153 -0.17223,0.3791 -0.875,0.35015 -0.77663,-0.032 -0.9346,-0.18996 -0.40278,-0.40277 z m -7.33333,-1.33333 c 0.48124,-0.19258 1.05624,-0.1689 1.27778,0.0526 0.22152,0.22153 -0.17223,0.37909 -0.875,0.35015 -0.77664,-0.032 -0.9346,-0.18996 -0.40278,-0.40278 z m -2.66667,-0.66667 c 0.48125,-0.19258 1.05625,-0.1689 1.27778,0.0526 0.22153,0.22153 -0.17223,0.3791 -0.875,0.35015 -0.77663,-0.032 -0.9346,-0.18996 -0.40278,-0.40277 z m -4,-0.66666 c 0.48125,-0.19258 1.05625,-0.1689 1.27778,0.0526 0.22153,0.22152 -0.17223,0.37909 -0.875,0.35014 -0.77663,-0.032 -0.9346,-0.18996 -0.40278,-0.40277 z M 47.385965,270.27778 c 0.03199,-0.77664 0.18996,-0.9346 0.402778,-0.40278 0.19258,0.48124 0.168896,1.05625 -0.05263,1.27778 -0.221528,0.22152 -0.379094,-0.17223 -0.350146,-0.875 z m 101.155705,0.60014 c 0.48124,-0.19258 1.05624,-0.1689 1.27778,0.0526 0.22152,0.22153 -0.17223,0.3791 -0.875,0.35015 -0.77664,-0.032 -0.9346,-0.18996 -0.40278,-0.40277 z m -6.66667,-1.33333 c 0.48125,-0.19258 1.05625,-0.1689 1.27778,0.0526 0.22153,0.22153 -0.17223,0.37909 -0.875,0.35015 -0.77663,-0.032 -0.9346,-0.18996 -0.40278,-0.40278 z m 806,0 c 0.48127,-0.19258 1.05627,-0.1689 1.2778,0.0526 0.22153,0.22153 -0.17227,0.37909 -0.875,0.35015 -0.77667,-0.032 -0.9346,-0.18996 -0.4028,-0.40278 z m -809.33333,-0.66667 c 0.48124,-0.19258 1.05624,-0.1689 1.27778,0.0526 0.22152,0.22153 -0.17223,0.3791 -0.875,0.35015 -0.77664,-0.032 -0.9346,-0.18996 -0.40278,-0.40277 z M 592,267 c 0.86117,-0.91667 1.71575,-1.66667 1.89909,-1.66667 0.18333,0 -0.37126,0.75 -1.23242,1.66667 -0.86117,0.91666 -1.71576,1.66666 -1.89909,1.66666 -0.18333,0 0.37125,-0.75 1.23242,-1.66666 z m -460.83333,0.55848 c 0.45833,-0.18494 1.20833,-0.18494 1.66666,0 0.45834,0.18494 0.0833,0.33626 -0.83333,0.33626 -0.91667,0 -1.29167,-0.15132 -0.83333,-0.33626 z M 991.62473,265.16666 989.66667,263 l 2.16666,1.95806 c 2.01967,1.82518 2.47314,2.37527 1.95807,2.37527 -0.11473,0 -1.08973,-0.975 -2.16667,-2.16667 z m -867.08306,1.0446 c 0.48124,-0.19258 1.05624,-0.1689 1.27778,0.0526 0.22152,0.22152 -0.17223,0.37909 -0.875,0.35014 -0.77664,-0.032 -0.9346,-0.18996 -0.40278,-0.40277 z M 516.79663,265 c 0.0136,-1.1 0.163,-1.4693 0.33203,-0.82065 0.16903,0.64865 0.15791,1.54865 -0.0247,2 C 516.92131,266.6307 516.78301,266.1 516.7966,265 Z m -395.5883,0.54459 c 0.48125,-0.19258 1.05625,-0.1689 1.27778,0.0526 0.22153,0.22153 -0.17222,0.37909 -0.875,0.35015 -0.77663,-0.032 -0.9346,-0.18996 -0.40278,-0.40278 z m 142,-0.66667 c 0.48125,-0.19258 1.05626,-0.1689 1.27778,0.0526 0.22153,0.22153 -0.17222,0.3791 -0.875,0.35015 -0.77663,-0.032 -0.9346,-0.18996 -0.40278,-0.40277 z m -148.66666,-0.66666 c 0.48124,-0.19258 1.05624,-0.1689 1.27778,0.0526 0.22152,0.22152 -0.17223,0.37909 -0.875,0.35014 -0.77664,-0.032 -0.9346,-0.18996 -0.40278,-0.40277 z m 638.79166,-2.46297 c 0,-0.13843 0.525,-0.66343 1.16667,-1.16667 1.0574,-0.82924 1.08093,-0.80566 0.25173,0.25171 -0.87093,1.1105 -1.4184,1.46365 -1.4184,0.91496 z m 432.99997,-1.08163 c 0.6637,-0.73333 1.3567,-1.33333 1.54,-1.33333 0.1834,0 -0.2096,0.6 -0.8733,1.33333 -0.6637,0.73334 -1.3567,1.33334 -1.54,1.33334 -0.1833,0 0.2097,-0.6 0.8733,-1.33334 z M 44.052631,257.61111 c 0.03199,-0.77663 0.189961,-0.9346 0.402778,-0.40278 0.192581,0.48125 0.168896,1.05625 -0.05263,1.27778 -0.221528,0.22153 -0.379094,-0.17223 -0.350148,-0.875 z m 472.719299,-0.27778 c 0,-0.91667 0.15132,-1.29167 0.33626,-0.83333 0.18494,0.45833 0.18494,1.20833 0,1.66666 -0.18494,0.45834 -0.33626,0.0833 -0.33626,-0.83333 z M 1139.2483,257.5 c -0.8292,-1.05738 -0.8057,-1.08096 0.2517,-0.25171 1.1105,0.87091 1.4637,1.41837 0.9149,1.41837 -0.1384,0 -0.6634,-0.525 -1.1666,-1.16666 z M 42.052631,250.27778 c 0.03199,-0.77664 0.189961,-0.9346 0.402778,-0.40278 0.192581,0.48124 0.168896,1.05625 -0.05263,1.27778 -0.221528,0.22152 -0.379094,-0.17223 -0.350148,-0.875 z M 554,251.08162 c 0,-0.13843 0.525,-0.66343 1.16667,-1.16666 1.05737,-0.82925 1.08095,-0.80567 0.2517,0.2517 -0.87091,1.1105 -1.41837,1.46366 -1.41837,0.91496 z m -368.125,-4.2037 c 0.48125,-0.19258 1.05625,-0.1689 1.27778,0.0526 0.22153,0.22153 -0.17223,0.3791 -0.875,0.35015 -0.77663,-0.032 -0.9346,-0.18996 -0.40278,-0.40277 z m 1009.5109,-5.93348 c 0.032,-0.77663 0.19,-0.9346 0.4028,-0.40278 0.1926,0.48125 0.169,1.05626 -0.053,1.27778 -0.2216,0.22153 -0.3792,-0.17222 -0.3502,-0.875 z m -431.99997,-0.66666 c 0.032,-0.77664 0.19,-0.9346 0.4028,-0.40278 0.1926,0.48124 0.16894,1.05625 -0.0527,1.27778 -0.22154,0.22152 -0.37914,-0.17223 -0.3502,-0.875 z M 1132.7719,240 c 0,-0.91667 0.1514,-1.29167 0.3363,-0.83334 0.1849,0.45834 0.1849,1.20834 0,1.66667 -0.1849,0.45833 -0.3363,0.0833 -0.3363,-0.83333 z m 98.6914,-0.33334 c 0.013,-1.1 0.163,-1.46929 0.332,-0.82064 0.169,0.64864 0.158,1.54864 -0.025,2 -0.1826,0.45135 -0.3209,-0.0794 -0.3074,-1.17936 z m -134.5637,-4.33333 c 0,-3.11667 0.1149,-4.39167 0.2552,-2.83333 0.1403,1.55833 0.1403,4.10833 0,5.66666 -0.1403,1.55834 -0.2552,0.28334 -0.2552,-2.83333 z m -213.35967,1 c 0.007,-2.2 0.1282,-3.01963 0.27654,-1.82139 0.1484,1.19823 0.14533,2.99823 -0.007,4 -0.15207,1.00176 -0.27347,0.0214 -0.26973,-2.17861 z M 700.8854,235 c 0,-2.56667 0.12347,-3.53498 0.2678,-2.1518 0.14433,1.38318 0.14187,3.48318 -0.007,4.66666 -0.14726,1.1835 -0.26533,0.0518 -0.2624,-2.51486 z m 98.66133,0.33333 c 0,-2.38333 0.121,-3.35833 0.26887,-2.16667 0.14787,1.19167 0.14787,3.14167 0,4.33334 -0.14787,1.19166 -0.26887,0.21666 -0.26887,-2.16667 z m 213.33337,-0.66667 c 0,-2.38333 0.121,-3.35833 0.2688,-2.16666 0.1479,1.19166 0.1479,3.14166 0,4.33333 -0.1478,1.19167 -0.2688,0.21667 -0.2688,-2.16667 z M 528,235.74829 c 0,-0.13843 0.525,-0.66343 1.16667,-1.16667 1.05737,-0.82924 1.08095,-0.80566 0.2517,0.25171 C 528.54746,235.94383 528,236.29698 528,235.74829 Z M 1231.4633,231 c 0.013,-1.1 0.163,-1.4693 0.332,-0.82065 0.169,0.64865 0.158,1.54865 -0.025,2 -0.1826,0.45135 -0.3209,-0.0794 -0.3074,-1.17935 z m -468.0247,-1 c 0,-0.91667 0.15133,-1.29167 0.33627,-0.83334 0.18493,0.45834 0.18493,1.20834 0,1.66667 -0.18494,0.45833 -0.33627,0.0833 -0.33627,-0.83333 z m 369.2807,0.27778 c 0.032,-0.77664 0.19,-0.9346 0.4028,-0.40278 0.1926,0.48124 0.1689,1.05625 -0.053,1.27778 -0.2215,0.22152 -0.3791,-0.17223 -0.3502,-0.875 z m 62.6666,-0.66667 c 0.032,-0.77663 0.19,-0.9346 0.4028,-0.40278 0.1926,0.48125 0.169,1.05625 -0.053,1.27778 -0.2216,0.22153 -0.3792,-0.17223 -0.3502,-0.875 z M 551.875,225.54459 c 0.48125,-0.19258 1.05625,-0.1689 1.27778,0.0526 0.22153,0.22153 -0.17223,0.37909 -0.875,0.35015 -0.77663,-0.032 -0.9346,-0.18996 -0.40278,-0.40278 z m 5.95833,-0.65278 c 0.45834,-0.18494 1.20834,-0.18494 1.66667,0 0.45833,0.18494 0.0833,0.33626 -0.83333,0.33626 -0.91667,0 -1.29167,-0.15132 -0.83334,-0.33626 z m 39.55264,-4.61403 c 0.032,-0.77664 0.18996,-0.9346 0.40277,-0.40278 0.19258,0.48124 0.1689,1.05625 -0.0526,1.27778 -0.22153,0.22152 -0.37909,-0.17223 -0.35015,-0.875 z m 35.33333,-2 c 0.032,-0.77664 0.18996,-0.9346 0.40277,-0.40278 0.19258,0.48124 0.1689,1.05625 -0.0526,1.27778 -0.22152,0.22152 -0.37909,-0.17223 -0.35014,-0.875 z M 32.052631,212.94444 c 0.03199,-0.77663 0.189961,-0.9346 0.402778,-0.40278 0.192581,0.48125 0.168896,1.05626 -0.05263,1.27778 -0.221528,0.22153 -0.379094,-0.17222 -0.350148,-0.875 z m 5.333334,-1.33333 c 0.03199,-0.77663 0.18996,-0.9346 0.402778,-0.40278 0.19258,0.48125 0.168896,1.05625 -0.05263,1.27778 -0.221528,0.22153 -0.379094,-0.17223 -0.350146,-0.875 z m 8.666666,0 c 0.03199,-0.77663 0.189961,-0.9346 0.402778,-0.40278 0.192581,0.48125 0.168896,1.05625 -0.05263,1.27778 -0.221528,0.22153 -0.379094,-0.17223 -0.350148,-0.875 z M 755.91493,211.5 c -0.8292,-1.05738 -0.80566,-1.08096 0.25174,-0.25171 1.11046,0.87091 1.46366,1.41837 0.91493,1.41837 -0.1384,0 -0.6634,-0.525 -1.16667,-1.16666 z m 431.99997,0 c -0.8292,-1.05738 -0.8056,-1.08096 0.2518,-0.25171 1.1104,0.87091 1.4636,1.41837 0.9149,1.41837 -0.1384,0 -0.6634,-0.525 -1.1667,-1.16666 z M 1142,209.66666 c 1.2439,-1.28333 2.4115,-2.33333 2.5949,-2.33333 0.1833,0 -0.6844,1.05 -1.9282,2.33333 -1.2439,1.28334 -2.4116,2.33334 -2.5949,2.33334 -0.1833,0 0.6843,-1.05 1.9282,-2.33334 z m -433.33333,1.45806 c 0,-0.11473 0.975,-1.08973 2.16666,-2.16666 L 713,207 l -1.95807,2.16666 c -1.8252,2.01964 -2.37526,2.4731 -2.37526,1.95806 z m 43.60333,-3.29139 -1.27,-1.5 1.5,1.26999 c 1.4096,1.19348 1.80347,1.73001 1.27,1.73001 -0.12653,0 -0.80153,-0.675 -1.5,-1.5 z m 218.3608,-1 -2.29747,-2.5 2.5,2.29745 c 2.32694,2.1384 2.80654,2.70255 2.29747,2.70255 -0.1114,0 -1.2364,-1.125 -2.5,-2.5 z m -939.911502,0.77778 c 0.03199,-0.77663 0.189961,-0.9346 0.402778,-0.40278 0.192581,0.48125 0.168896,1.05625 -0.05263,1.27778 -0.221528,0.22153 -0.379094,-0.17223 -0.350147,-0.875 z m 88.528992,-6.77778 c -0.82924,-1.05737 -0.80566,-1.08095 0.25171,-0.25171 0.64167,0.50324 1.16667,1.02824 1.16667,1.16667 0,0.54869 -0.54746,0.19554 -1.41838,-0.91496 z m 609.59771,0.038 c 0.64867,-0.16903 1.54867,-0.15791 2,0.0247 0.4514,0.18262 -0.0793,0.32092 -1.17933,0.30733 -1.1,-0.0136 -1.46927,-0.163 -0.82067,-0.33203 z m 6,0 c 0.64867,-0.16903 1.54867,-0.15791 2,0.0247 0.4514,0.18262 -0.0793,0.32092 -1.17933,0.30733 -1.1,-0.0136 -1.46927,-0.163 -0.82067,-0.33203 z m 426,0 c 0.6487,-0.16903 1.5487,-0.15791 2,0.0247 0.4514,0.18262 -0.079,0.32092 -1.1793,0.30733 -1.1,-0.0136 -1.4693,-0.163 -0.8207,-0.33203 z m 6,0 c 0.6487,-0.16903 1.5487,-0.15791 2,0.0247 0.4514,0.18262 -0.079,0.32092 -1.1793,0.30733 -1.1,-0.0136 -1.4693,-0.163 -0.8207,-0.33203 z M 574.5,200.22514 c 0.45833,-0.18494 1.20833,-0.18494 1.66667,0 0.45833,0.18494 0.0833,0.33626 -0.83334,0.33626 -0.91666,0 -1.29166,-0.15132 -0.83333,-0.33626 z M 452.30802,168 c 0,-17.41667 0.0861,-24.54167 0.19139,-15.83334 0.10526,8.70834 0.10526,22.95834 0,31.66667 -0.10526,8.70833 -0.19139,1.58333 -0.19139,-15.83333 z M 1111,194.66666 c 0.6637,-0.73333 1.3567,-1.33333 1.54,-1.33333 0.1833,0 -0.2097,0.6 -0.8733,1.33333 C 1111.003,195.4 1110.31,196 1110.1267,196 c -0.1834,0 0.2096,-0.6 0.8733,-1.33334 z M 997.94953,192.83333 996.33333,191 l 1.83334,1.6162 c 1.00833,0.88892 1.83333,1.71392 1.83333,1.83334 0,0.52285 -0.53987,0.0973 -2.05047,-1.61621 z M 784.5816,192.16666 c -0.8292,-1.05737 -0.80567,-1.08095 0.25173,-0.2517 1.11047,0.87091 1.46367,1.41837 0.91494,1.41837 -0.1384,0 -0.6634,-0.525 -1.16667,-1.16667 z m -745.118301,-2.5 c 0.01359,-1.1 0.162999,-1.46929 0.332028,-0.82064 0.169029,0.64864 0.157913,1.54864 -0.0247,2 -0.182618,0.45135 -0.320914,-0.0794 -0.307328,-1.17936 z m 861.870031,0.7483 c 0,-0.13844 0.525,-0.66344 1.16667,-1.16667 1.0574,-0.82925 1.08093,-0.80567 0.25173,0.25171 -0.87093,1.1105 -1.4184,1.46365 -1.4184,0.91496 z m -282.03588,-3.58163 -2.29745,-2.5 2.5,2.29745 c 2.32695,2.1384 2.80653,2.70255 2.29745,2.70255 -0.11141,0 -1.23641,-1.125 -2.5,-2.5 z m 159.95082,0 c -0.8292,-1.05737 -0.80567,-1.08095 0.25173,-0.25171 1.11047,0.87092 1.46367,1.41838 0.91493,1.41838 -0.1384,0 -0.6634,-0.525 -1.16666,-1.16667 z m 212,-0.66667 c -0.8292,-1.05737 -0.80567,-1.08095 0.25173,-0.2517 1.11047,0.87091 1.46367,1.41837 0.91493,1.41837 -0.1384,0 -0.6634,-0.525 -1.16666,-1.16667 z M 674.12733,173.50215 c 4.65334,-0.11444 12.45334,-0.11475 17.33334,-6.7e-4 4.87993,0.11406 1.07266,0.2077 -8.46067,0.20808 -9.53333,3.8e-4 -13.52607,-0.0929 -8.87267,-0.20738 z m -110.919,-1.29089 c 0.48125,-0.19258 1.05626,-0.1689 1.27778,0.0526 0.22153,0.22152 -0.17222,0.37909 -0.875,0.35014 -0.77663,-0.032 -0.9346,-0.18996 -0.40278,-0.40277 z m 20.625,0.0139 c 0.45834,-0.18494 1.20834,-0.18494 1.66667,0 0.45833,0.18494 0.0833,0.33626 -0.83333,0.33626 -0.91667,0 -1.29167,-0.15132 -0.83334,-0.33626 z m 146.70834,-0.0139 c 0.48126,-0.19258 1.05626,-0.1689 1.2778,0.0526 0.22153,0.22152 -0.17227,0.37909 -0.875,0.35014 -0.77667,-0.032 -0.9346,-0.18996 -0.4028,-0.40277 z m 15.33333,0 c 0.48127,-0.19258 1.05627,-0.1689 1.2778,0.0526 0.22153,0.22152 -0.17227,0.37909 -0.875,0.35014 -0.77667,-0.032 -0.9346,-0.18996 -0.4028,-0.40277 z m 194,0 c 0.48127,-0.19258 1.05627,-0.1689 1.2778,0.0526 0.22153,0.22152 -0.17227,0.37909 -0.875,0.35014 -0.77667,-0.032 -0.9346,-0.18996 -0.4028,-0.40277 z m 17.33333,0 c 0.48127,-0.19258 1.05627,-0.1689 1.2778,0.0526 0.22154,0.22152 -0.17226,0.37909 -0.875,0.35014 -0.77666,-0.032 -0.9346,-0.18996 -0.4028,-0.40277 z m 197.29167,0.0139 c 0.4583,-0.18494 1.2083,-0.18494 1.6667,0 0.4583,0.18494 0.083,0.33626 -0.8334,0.33626 -0.9166,0 -1.2916,-0.15132 -0.8333,-0.33626 z m 18.7083,-0.0139 c 0.4813,-0.19258 1.0563,-0.1689 1.2778,0.0526 0.2216,0.22152 -0.1722,0.37909 -0.875,0.35014 -0.7766,-0.032 -0.9346,-0.18996 -0.4028,-0.40277 z M 54.052631,170.27778 c 0.03199,-0.77664 0.189961,-0.9346 0.402778,-0.40278 0.192581,0.48124 0.168896,1.05625 -0.05263,1.27778 -0.221528,0.22152 -0.379094,-0.17223 -0.350148,-0.875 z m 7.614036,-10.94445 c -0.226613,-0.36667 -0.09432,-0.66667 0.293988,-0.66667 0.388306,0 0.706012,0.3 0.706012,0.66667 0,0.36667 -0.132295,0.66667 -0.293989,0.66667 -0.161694,0 -0.479399,-0.3 -0.706011,-0.66667 z M 133.91496,143.5 c -0.82925,-1.05738 -0.80567,-1.08096 0.25171,-0.25171 0.64166,0.50323 1.16666,1.02823 1.16666,1.16667 0,0.54869 -0.54746,0.19554 -1.41837,-0.91496 z m 6,-78.000001 c -0.82925,-1.057371 -0.80567,-1.080951 0.25171,-0.251703 1.1105,0.870912 1.46365,1.41837 0.91496,1.41837 -0.13844,0 -0.66344,-0.525 -1.16667,-1.166667 z"
         id="path253" />
      <path
         style="fill:#f9f9f9;stroke-width:0.666667"
         d="m 258,216.34466 c -8.87537,-2.85538 -12.3618,-3.94384 -40.66667,-12.69609 C 209.45,201.21094 199.85,198.2279 196,197.01959 c -3.85,-1.20831 -20.35,-6.33203 -36.66667,-11.38605 -16.31666,-5.05402 -30.33552,-9.66413 -31.15302,-10.24467 -1.78574,-1.26816 -36.831777,-54.61495 -36.840723,-56.07866 -0.0073,-1.19328 10.412123,-15.64355 11.279823,-15.64355 0.32207,0 7.6757,9.17302 16.3414,20.38448 l 15.75581,20.38448 18.47503,6.52334 c 21.40339,7.55732 55.39927,19.599 63.14168,22.3654 2.93334,1.0481 11.48334,4.10406 19,6.79102 7.51667,2.68696 14.1484,5.18521 14.73718,5.55166 1.07408,0.66852 18.1164,33.70715 17.34204,33.6197 -0.2269,-0.0256 -4.46255,-1.34956 -9.41255,-2.94208 z M 72.052633,146.27778 c 0.032,-0.77664 0.18996,-0.9346 0.402774,-0.40278 0.19258,0.48124 0.1689,1.05624 -0.0526,1.27778 -0.221534,0.22152 -0.379094,-0.17223 -0.350147,-0.875 z M 214,137.20215 c -10.81667,-4.32829 -30.69827,-12.26424 -44.18133,-17.63545 -23.24409,-9.25968 -24.64347,-9.9138 -27,-12.62088 -1.36694,-1.57027 -7.06034,-7.800808 -12.652,-13.845628 C 124.575,87.055372 120,81.834179 120,81.497539 c 0,-0.336634 0.99961,-1.936294 2.22136,-3.5548 1.22175,-1.618507 4.53775,-6.16322 7.36889,-10.099353 l 5.14753,-7.156618 6.5055,5.823282 c 8.88186,7.950435 12.94413,10.888275 18.42339,13.323829 2.56666,1.1409 6.31666,2.813253 8.33333,3.716353 13.82783,6.19234 29.43231,13.12202 35.6594,15.835733 4.02933,1.755945 8.13404,3.887445 9.12157,4.736665 1.5854,1.36336 21.77012,40.3499 21.11899,40.79107 -0.12831,0.0869 -9.08329,-3.38326 -19.89996,-7.71155 z M 175.33333,48.104297 c -12.67434,-6.31565 -16.78952,-8.637629 -21.11186,-11.912301 l -2.11186,-1.599979 6.77853,-9.338809 c 3.72819,-5.136346 7.28011,-10.112006 7.89315,-11.057022 l 1.11462,-1.718213 4.45945,8.92768 c 2.4527,4.910224 7.30029,14.40268 10.77242,21.094346 3.47213,6.691667 6.06379,12.147667 5.75926,12.124447 -0.30454,-0.02322 -6.40371,-2.957288 -13.55371,-6.520149 z"
         id="path251" />
      <path
         style="fill:#f9f9f9;stroke-width:0.666667"
         d="m 153.875,299.54459 c 0.48125,-0.19258 1.05625,-0.1689 1.27778,0.0526 0.22153,0.22153 -0.17223,0.37909 -0.875,0.35015 -0.77663,-0.032 -0.9346,-0.18996 -0.40278,-0.40278 z m -20.66667,-3.33333 c 0.48125,-0.19258 1.05625,-0.1689 1.27778,0.0526 0.22153,0.22152 -0.17222,0.37909 -0.875,0.35014 -0.77663,-0.032 -0.9346,-0.18996 -0.40278,-0.40277 z m -12,-2 c 0.48125,-0.19258 1.05625,-0.1689 1.27778,0.0526 0.22153,0.22152 -0.17222,0.37909 -0.875,0.35014 -0.77663,-0.032 -0.9346,-0.18996 -0.40278,-0.40277 z M 266,265.27136 c -12.28333,-2.89056 -29.53333,-6.93236 -38.33333,-8.98178 -8.8,-2.04943 -20.95,-4.88251 -27,-6.29574 -6.05,-1.41324 -24.05,-5.60581 -40,-9.31683 -15.95,-3.71103 -32.8967,-7.65427 -37.65933,-8.76276 -4.76263,-1.1085 -9.07554,-2.36087 -9.58425,-2.78307 -1.2653,-1.0501 -40.756423,-81.04309 -40.756423,-82.55597 0,-0.66542 1.8383,-3.77985 4.085113,-6.92096 l 4.085113,-5.71111 12.438474,21.86176 c 6.841163,12.02397 15.379243,27.04713 18.973503,33.3848 3.59427,6.33768 7.18366,11.93426 7.97642,12.43686 0.79276,0.50261 3.84138,1.56515 6.77471,2.36121 61.54545,16.70242 85.01015,23.06561 89.66667,24.31591 34.68238,9.31245 55.73749,15.09176 57.33333,15.73714 1.28439,0.51942 3.15973,3.6503 8.17608,13.64993 3.58018,7.13675 6.43018,12.94447 6.33333,12.90605 -0.0968,-0.0384 -10.22608,-2.43488 -22.50941,-5.32544 z"
         id="path249" />
      <path
         style="fill:#f9f9f9;stroke-width:0.666667"
         d="m 155.83333,350.89181 c 0.45834,-0.18494 1.20834,-0.18494 1.66667,0 0.45833,0.18494 0.0833,0.33626 -0.83333,0.33626 -0.91667,0 -1.29167,-0.15132 -0.83334,-0.33626 z M 141.5,349.54044 c 0.64167,-0.16768 1.69167,-0.16768 2.33333,0 0.64167,0.16769 0.11667,0.30489 -1.16666,0.30489 -1.28334,0 -1.80834,-0.1372 -1.16667,-0.30489 z m -12.29167,-1.32919 c 0.48125,-0.19258 1.05625,-0.1689 1.27778,0.0526 0.22153,0.22153 -0.17222,0.3791 -0.875,0.35015 -0.77663,-0.032 -0.9346,-0.18996 -0.40278,-0.40277 z m -8.04166,-0.65278 c 0.45833,-0.18494 1.20833,-0.18494 1.66666,0 0.45834,0.18494 0.0833,0.33626 -0.83333,0.33626 -0.91667,0 -1.29167,-0.15132 -0.83333,-0.33626 z m -12.625,-1.34722 c 0.48124,-0.19258 1.05624,-0.1689 1.27778,0.0526 0.22152,0.22153 -0.17223,0.3791 -0.875,0.35015 -0.77664,-0.032 -0.9346,-0.18996 -0.40278,-0.40277 z m -14.000003,-1.33333 c 0.481246,-0.19258 1.056246,-0.1689 1.27778,0.0526 0.221526,0.22153 -0.172227,0.37909 -0.875,0.35015 -0.776634,-0.032 -0.9346,-0.18996 -0.40278,-0.40278 z M 201.875,331.54459 c 0.48125,-0.19258 1.05625,-0.1689 1.27778,0.0526 0.22153,0.22152 -0.17223,0.37909 -0.875,0.35014 -0.77663,-0.032 -0.9346,-0.18996 -0.40278,-0.40277 z m -26.70833,-3.31945 c 0.45833,-0.18494 1.20833,-0.18494 1.66666,0 0.45834,0.18494 0.0833,0.33626 -0.83333,0.33626 -0.91667,0 -1.29167,-0.15132 -0.83333,-0.33626 z m -9.95834,-1.34722 c 0.48125,-0.19258 1.05625,-0.1689 1.27778,0.0526 0.22153,0.22153 -0.17222,0.37909 -0.875,0.35015 -0.77663,-0.032 -0.9346,-0.18996 -0.40278,-0.40278 z m -15.33333,-2 c 0.48125,-0.19258 1.05625,-0.1689 1.27778,0.0526 0.22153,0.22153 -0.17223,0.37909 -0.875,0.35015 -0.77663,-0.032 -0.9346,-0.18996 -0.40278,-0.40278 z m -16.66667,-2 c 0.48125,-0.19258 1.05625,-0.1689 1.27778,0.0526 0.22153,0.22153 -0.17222,0.37909 -0.875,0.35015 -0.77663,-0.032 -0.9346,-0.18996 -0.40278,-0.40278 z M 122.5,321.55847 c 0.45833,-0.18494 1.20833,-0.18494 1.66667,0 0.45833,0.18494 0.0833,0.33626 -0.83334,0.33626 -0.91666,0 -1.29166,-0.15132 -0.83333,-0.33626 z m 96.83333,-11.56539 C 184.01363,304.3137 173.14347,302.56298 151,298.98745 c -8.06667,-1.30253 -20.21667,-3.2599 -27,-4.34971 -20.73389,-3.33109 -21.64145,-3.4976 -22.45211,-4.11922 -0.43199,-0.33126 -1.685597,-3.05844 -2.78579,-6.0604 C 97.6619,281.45615 92.72304,268.65 87.786853,256 82.85066,243.35 77.76048,230.3 76.475347,227 c -1.28514,-3.3 -4.439534,-11.4 -7.00976,-18 -2.570234,-6.6 -6.069148,-15.6 -7.77537,-20 -1.706221,-4.4 -3.98452,-10.15415 -5.062886,-12.78699 -1.078365,-2.63285 -1.954526,-5.33285 -1.947024,-6 0.0075,-0.66716 1.640884,-3.43415 3.629738,-6.14886 l 3.616098,-4.93584 1.760632,3.93584 c 1.94851,4.35585 11.305825,25.74448 30.450398,69.60251 6.962377,15.95 13.030737,29.39027 13.485237,29.86726 0.7986,0.8381 7.31374,2.20872 45.04426,9.47616 9.71666,1.87157 21.26666,4.12623 25.66666,5.01036 13.887,2.79044 108.43506,21.29388 112.5,22.01672 1.375,0.24451 2.5,0.71117 2.5,1.03703 0,0.32586 -0.29556,0.59247 -0.65681,0.59247 -0.36125,0 -8.64268,3.3 -18.40319,7.33334 -12.31472,5.08881 -18.49016,7.31174 -20.17652,7.26279 -1.33658,-0.0388 -16.98014,-2.41016 -34.76348,-5.26971 z"
         id="path247" />
      <path
         style="fill:#f9f9f9;stroke-width:0.666667"
         d="m 106.54167,372.21125 c 0.48124,-0.19258 1.05624,-0.1689 1.27778,0.0526 0.22152,0.22153 -0.17223,0.3791 -0.875,0.35015 -0.77664,-0.032 -0.9346,-0.18996 -0.40278,-0.40277 z M 85.875,370.87792 c 0.481247,-0.19258 1.056247,-0.1689 1.27778,0.0526 0.221527,0.22153 -0.172227,0.37909 -0.875,0.35015 -0.776633,-0.032 -0.9346,-0.18996 -0.40278,-0.40278 z m 588.9982,-30.04323 c 5.0636,-0.1134 13.1636,-0.1131 18,6.5e-4 4.8364,0.11375 0.69347,0.20653 -9.20653,0.20617 -9.9,-3.5e-4 -13.85707,-0.0934 -8.79347,-0.20682 z M 561.83333,298.19618 c 0.825,-0.15891 2.175,-0.15891 3,0 0.825,0.1589 0.15,0.28891 -1.5,0.28891 -1.65,0 -2.325,-0.13001 -1.5,-0.28891 z m 175,0.0109 c 0.64167,-0.16768 1.69167,-0.16768 2.33334,0 0.64166,0.16769 0.11666,0.30489 -1.16667,0.30489 -1.28333,0 -1.80833,-0.1372 -1.16667,-0.30489 z m 215.67447,-0.0119 c 0.82927,-0.15946 2.02927,-0.15341 2.66667,0.0135 0.63733,0.16686 -0.0413,0.29734 -1.5078,0.28994 -1.46667,-0.007 -1.9882,-0.14393 -1.15887,-0.30339 z m 211.3255,0.03 c 0.4584,-0.18494 1.2084,-0.18494 1.6667,0 0.4583,0.18494 0.083,0.33626 -0.8333,0.33626 -0.9167,0 -1.2917,-0.15132 -0.8334,-0.33626 z m -610.62497,-0.68056 c 0.48125,-0.19258 1.05626,-0.1689 1.27778,0.0526 0.22153,0.22153 -0.17222,0.3791 -0.875,0.35015 -0.77663,-0.032 -0.9346,-0.18996 -0.40278,-0.40277 z m 18,0 c 0.48125,-0.19258 1.05626,-0.1689 1.27778,0.0526 0.22153,0.22153 -0.17222,0.3791 -0.875,0.35015 -0.77663,-0.032 -0.9346,-0.18996 -0.40278,-0.40277 z m 157.33334,0 c 0.48126,-0.19258 1.05626,-0.1689 1.2778,0.0526 0.22153,0.22153 -0.17227,0.3791 -0.875,0.35015 -0.77667,-0.032 -0.9346,-0.18996 -0.4028,-0.40277 z m 17.95833,0.0139 c 0.45833,-0.18494 1.20833,-0.18494 1.66667,0 0.45833,0.18494 0.0833,0.33626 -0.83334,0.33626 -0.91666,0 -1.29166,-0.15132 -0.83333,-0.33626 z m 196.04167,-0.0139 c 0.48126,-0.19258 1.05626,-0.1689 1.2778,0.0526 0.22153,0.22153 -0.17227,0.3791 -0.875,0.35015 -0.77667,-0.032 -0.9346,-0.18996 -0.4028,-0.40277 z m 20.625,0.0139 c 0.45833,-0.18494 1.20833,-0.18494 1.66666,0 0.45834,0.18494 0.0833,0.33626 -0.83333,0.33626 -0.91667,0 -1.29167,-0.15132 -0.83333,-0.33626 z m 191.33333,0 c 0.4583,-0.18494 1.2083,-0.18494 1.6667,0 0.4583,0.18494 0.083,0.33626 -0.8334,0.33626 -0.9166,0 -1.2916,-0.15132 -0.8333,-0.33626 z m 18.6667,0 c 0.4583,-0.18494 1.2083,-0.18494 1.6666,0 0.4584,0.18494 0.083,0.33626 -0.8333,0.33626 -0.9167,0 -1.2917,-0.15132 -0.8333,-0.33626 z m -447.95837,-0.68055 c 0.48127,-0.19258 1.05627,-0.1689 1.2778,0.0526 0.22154,0.22152 -0.17226,0.37909 -0.875,0.35014 -0.77666,-0.032 -0.9346,-0.18996 -0.4028,-0.40277 z m 212.66667,0 c 0.48127,-0.19258 1.05627,-0.1689 1.2778,0.0526 0.22153,0.22152 -0.17227,0.37909 -0.875,0.35014 -0.77667,-0.032 -0.9346,-0.18996 -0.4028,-0.40277 z m 30.66667,0 c 0.48126,-0.19258 1.05626,-0.1689 1.2778,0.0526 0.22153,0.22152 -0.17227,0.37909 -0.875,0.35014 -0.77667,-0.032 -0.9346,-0.18996 -0.4028,-0.40277 z m 209.33333,0 c 0.4813,-0.19258 1.0563,-0.1689 1.2778,0.0526 0.2215,0.22152 -0.1723,0.37909 -0.875,0.35014 -0.7767,-0.032 -0.9346,-0.18996 -0.4028,-0.40277 z M 378.97583,263.66666 c 1.2e-4,-18.33333 0.0858,-25.73744 0.19041,-16.45356 0.1046,9.28387 0.1045,24.28387 -2.2e-4,33.33333 -0.10472,9.04946 -0.19031,1.45357 -0.19019,-16.87977 z m 592.89917,32.5446 c 0.48127,-0.19258 1.05627,-0.1689 1.2778,0.0526 0.22153,0.22152 -0.17227,0.37909 -0.875,0.35014 -0.77667,-0.032 -0.9346,-0.18996 -0.4028,-0.40277 z M 1072,212.01106 v -84.65559 l -17.5,-0.18929 -17.5,-0.1893 17.8333,-0.15511 17.8334,-0.15511 v 85 c 0,46.75 -0.15,85 -0.3334,85 -0.1833,0 -0.3333,-38.09502 -0.3333,-84.6556 z m -355.33333,82.32227 c -0.91667,-0.52401 -1.36667,-0.95275 -1,-0.95275 0.36666,0 1.41666,0.42874 2.33333,0.95275 0.91667,0.52401 1.36667,0.95275 1,0.95275 -0.36667,0 -1.41667,-0.42874 -2.33333,-0.95275 z m -132.61112,0.0848 c 0.68604,-0.61385 4.61112,-2.41761 4.61112,-2.11903 0,0.38399 -3.69588,2.36757 -4.41134,2.36757 -0.26266,0 -0.35255,-0.11184 -0.19978,-0.24854 z m -47.0948,-1.4549 c -1.2202,-0.97758 -1.19893,-0.99146 0.37258,-0.24303 2.04069,0.97187 2.4189,1.27981 1.57187,1.27981 -0.3577,0 -1.2327,-0.46655 -1.94445,-1.03678 z m 446.37258,-0.29656 c 0.55,-0.35544 1.3,-0.64624 1.66667,-0.64624 0.36667,0 0.21667,0.2908 -0.33333,0.64624 -0.55,0.35544 -1.3,0.64625 -1.66667,0.64625 -0.36667,0 -0.21667,-0.29081 0.33333,-0.64625 z m 209.33337,0 c 0.55,-0.35544 1.3,-0.64624 1.6666,-0.64624 0.3667,0 0.2167,0.2908 -0.3333,0.64624 -0.55,0.35544 -1.3,0.64625 -1.6667,0.64625 -0.3666,0 -0.2166,-0.29081 0.3334,-0.64625 z M 709.9476,290.7099 c -1.62113,-1.07621 -3.9976,-3.08476 -5.28093,-4.46343 -1.894,-2.03471 -1.6508,-1.90839 1.29153,0.67089 1.99373,1.74766 4.46873,3.61392 5.5,4.14722 1.03133,0.53331 1.87513,1.11195 1.87513,1.28587 0,0.54326 -0.35566,0.37094 -3.38573,-1.64055 z m 422.7191,0.95676 c -0.9167,-0.52401 -1.3667,-0.95275 -1,-0.95275 0.3666,0 1.4166,0.42874 2.3333,0.95275 0.9167,0.52402 1.3667,0.95276 1,0.95276 -0.3667,0 -1.4167,-0.42874 -2.3333,-0.95276 z m -540.86136,-1.94632 c 1.54294,-1.34364 3.90469,-3.7054 5.24834,-5.24834 1.34365,-1.54293 2.12597,-2.20534 1.73849,-1.472 -1.00364,1.89945 -6.51667,7.47807 -8.29372,8.39238 -0.82415,0.42403 -0.23604,-0.32838 1.30689,-1.67204 z m 178.52799,-0.0658 c 0.73334,-0.59709 1.93334,-1.38019 2.66667,-1.74022 l 1.33333,-0.65459 L 773,288.3454 c -0.73333,0.5971 -1.93333,1.3802 -2.66667,1.74022 L 769,290.74022 Z M 1198,290.40466 c 0,-0.14411 0.4656,-0.44067 1.0346,-0.65904 0.5933,-0.22766 0.8609,-0.1159 0.6273,0.26201 -0.3914,0.63347 -1.6619,0.93697 -1.6619,0.39703 z m -670.96017,-4.57471 c -2.29352,-2.29353 -4.67345,-5.14353 -5.28872,-6.33333 -1.63632,-3.1643 -0.95299,-2.64272 1.50262,1.14692 1.17972,1.82062 3.70008,4.67062 5.60082,6.33334 1.90074,1.66271 3.20826,3.02312 2.9056,3.02312 -0.30265,0 -2.4268,-1.87652 -4.72032,-4.17005 z M 914.5,288.95202 c -2.49227,-1.3521 -2.3406,-1.91524 0.16667,-0.61869 1.1,0.56883 2,1.17653 2,1.35045 0,0.429 -0.0716,0.40481 -2.16667,-0.73176 z m 76.80987,-0.0679 c 6.71886,-4.97804 9.23023,-6.98052 10.62253,-8.4702 l 1.5991,-1.71084 -6.5991,-7.08458 c -3.62947,-3.89651 -7.696,-8.3297 -9.03667,-9.85154 L 985.45813,259 l -1.89573,1.7 c -1.04267,0.93501 -2.49573,2.10916 -3.22907,2.60924 C 979.6,263.80932 980.35,262.98211 982,261.471 c 1.65,-1.51112 3.1596,-2.76028 3.35467,-2.77591 0.19506,-0.0157 3.19446,3.04657 6.66533,6.80491 3.47087,3.75833 7.63473,8.26629 9.2531,10.01769 l 2.9424,3.18436 -1.941,2.0282 c -2.2392,2.33961 -7.6945,6.57331 -10.60783,8.2324 -1.97987,1.1275 -1.98347,1.12671 -0.3568,-0.0785 z m 136.31753,0.0791 c -1.2427,-0.9956 -1.2345,-1.0079 0.2059,-0.30988 0.825,0.3998 1.5,0.86634 1.5,1.03678 0,0.51014 -0.3457,0.36282 -1.7059,-0.7269 z M 1201,288.87984 c 0.3667,-0.36679 2.1667,-1.64173 4,-2.83321 1.8333,-1.19148 2.7333,-1.58469 2,-0.87379 -0.7333,0.7109 -2.5333,1.98585 -4,2.83321 -1.4667,0.84737 -2.3667,1.24057 -2,0.87379 z m -76.7059,-1.91662 c -1.2427,-0.9956 -1.2345,-1.0079 0.2059,-0.30988 0.825,0.3998 1.5,0.86634 1.5,1.03678 0,0.51014 -0.3457,0.36282 -1.7059,-0.7269 z M 778.431,283.82278 c 1.90693,-1.74746 4.87413,-4.74746 6.59373,-6.66666 2.0788,-2.32 2.44894,-2.59574 1.10447,-0.82279 -2.02667,2.67251 -7.28,7.85971 -9.81393,9.69036 -0.74327,0.53697 0.2088,-0.45344 2.11573,-2.20091 z m 129.78673,1.09982 c -4.05613,-3.03885 -9.8918,-8.64246 -11.72206,-11.25594 -0.7704,-1.1 0.42953,-0.0295 2.66653,2.37884 2.23693,2.40836 5.8156,5.6925 7.95253,7.29809 4.80947,3.61368 5.25594,3.98974 4.73634,3.98974 -0.2286,0 -1.8636,-1.08483 -3.63334,-2.41073 z m 212.71897,-0.4226 -1.27,-1.5 1.5,1.26999 c 1.4096,1.19348 1.8034,1.73001 1.27,1.73001 -0.1266,0 -0.8016,-0.675 -1.5,-1.5 z m 91.963,-4.86832 c 2.5115,-2.54742 5.4509,-5.90668 6.532,-7.46502 1.0812,-1.55833 2.1217,-2.83333 2.3124,-2.83333 1.1746,0 -7.2522,9.94923 -10.9811,12.96501 -1.3363,1.08076 -0.3748,-0.11924 2.1367,-2.66666 z m -95.5664,2.12158 c -0.9166,-0.84586 -3.0146,-3.01138 -4.662,-4.81226 -1.7294,-1.89048 -0.9546,-1.30958 1.8333,1.37445 2.6558,2.55683 4.8287,4.73183 4.8287,4.83333 0,0.36824 -0.3633,0.1147 -2,-1.39552 z m -548.16663,-6.89042 c 0.825,-0.1589 2.175,-0.1589 3,0 0.825,0.1589 0.15,0.28892 -1.5,0.28892 -1.65,0 -2.325,-0.13002 -1.5,-0.28892 z M 1107.4788,270.5 c -2.4332,-3.59337 -2.9596,-4.5 -2.6125,-4.5 0.153,0 1.3738,1.65 2.7128,3.66666 1.339,2.01667 2.2959,3.66667 2.1264,3.66667 -0.1694,0 -1.1715,-1.275 -2.2267,-2.83333 z m -552.86259,-1 -1.61621,-1.83334 1.83333,1.61621 c 1.00834,0.88892 1.83334,1.71392 1.83334,1.83333 0,0.52286 -0.53987,0.0973 -2.05046,-1.6162 z m 32.71712,1.60012 c 0,-0.15406 0.78694,-0.79573 1.74875,-1.42594 0.96181,-0.6302 1.54511,-0.81632 1.29621,-0.41358 -0.47564,0.76959 -3.04496,2.32178 -3.04496,1.83952 z m 203.83154,-3.04655 c 1.00713,-1.80387 1.94353,-3.16742 2.0808,-3.03011 0.28986,0.28982 -3.1514,6.30987 -3.60694,6.30987 -0.16773,0 0.519,-1.47589 1.52614,-3.27976 z M 893.47327,269.5 c -0.70634,-1.00834 -1.63734,-2.50834 -2.06887,-3.33334 -1.40387,-2.68373 -0.32173,-1.58267 1.80173,1.83334 2.218,3.56802 2.3892,4.52952 0.26714,1.5 z m 60.36006,0.69618 c 0.825,-0.15891 2.175,-0.15891 3,0 0.825,0.1589 0.15,0.28891 -1.5,0.28891 -1.65,0 -2.325,-0.13001 -1.5,-0.28891 z m -222.66666,-0.66667 c 0.825,-0.15891 2.175,-0.15891 3,0 0.825,0.1589 0.15,0.28891 -1.5,0.28891 -1.65,0 -2.325,-0.13001 -1.5,-0.28891 z m 232.04166,0.0151 c 0.48127,-0.19258 1.05627,-0.1689 1.2778,0.0526 0.22154,0.22152 -0.17226,0.37909 -0.875,0.35014 -0.77666,-0.032 -0.9346,-0.18996 -0.4028,-0.40277 z m 199.95837,-0.0151 c 0.825,-0.15891 2.175,-0.15891 3,0 0.825,0.1589 0.15,0.28891 -1.5,0.28891 -1.65,0 -2.325,-0.13001 -1.5,-0.28891 z m -219.95837,-0.65159 c 0.48127,-0.19258 1.05627,-0.1689 1.2778,0.0526 0.22154,0.22153 -0.17226,0.3791 -0.875,0.35015 -0.77666,-0.032 -0.9346,-0.18996 -0.4028,-0.40277 z m -349.90352,-2.71126 c 1.23842,-1.55833 2.3719,-2.83333 2.51883,-2.83333 0.47104,0 -2.38597,3.75127 -3.59928,4.72587 -0.64417,0.51744 -0.15796,-0.3342 1.08045,-1.89254 z m -40.99889,0.45565 c -0.24169,-0.39106 -0.29645,-0.854 -0.1217,-1.02875 0.17475,-0.17476 0.49537,0.1452 0.7125,0.71102 0.45079,1.17474 0.0665,1.38137 -0.5908,0.31773 z m 193.08295,0.46247 c 0.68606,-0.61384 4.61113,-2.4176 4.61113,-2.11902 0,0.38398 -3.69587,2.36757 -4.41133,2.36757 -0.26267,0 -0.35254,-0.11185 -0.1998,-0.24855 z m 227.33333,-0.003 c 0.68187,-0.61708 5.94447,-3.0744 5.94447,-2.77572 0,0.37896 -5.03127,3.0271 -5.7512,3.0271 -0.25907,0 -0.346,-0.11312 -0.19327,-0.25138 z m 204.6667,0.003 c 0.686,-0.61384 4.6111,-2.4176 4.6111,-2.11902 0,0.38398 -3.6959,2.36757 -4.4113,2.36757 -0.2627,0 -0.3526,-0.11185 -0.1998,-0.24855 z m -247.82903,-4.30242 c -1.7746,-1.40304 -4.00707,-3.57804 -4.96107,-4.83334 -1.9092,-2.51222 -4.16047,-6.61569 -3.62947,-6.61569 0.18527,0 0.95027,1.20234 1.7,2.67187 1.4444,2.83129 5.6708,7.45745 8.99734,9.8484 1.1,0.79062 1.80193,1.447 1.55986,1.45861 -0.24206,0.0116 -1.89206,-1.12682 -3.66666,-2.52985 z M 1224.7202,264 c 0.9719,-2.04069 1.2798,-2.4189 1.2798,-1.57187 0,0.3577 -0.4665,1.2327 -1.0368,1.94445 -0.9775,1.2202 -0.9915,1.19893 -0.243,-0.37258 z M 751.66667,263.33333 C 752.33033,262.6 753.02333,262 753.20667,262 c 0.18333,0 -0.20967,0.6 -0.87334,1.33333 -0.66366,0.73333 -1.35666,1.33333 -1.54,1.33333 -0.18333,0 0.20967,-0.6 0.87334,-1.33333 z m 432.00003,0 c 0.6636,-0.73333 1.3566,-1.33333 1.54,-1.33333 0.1833,0 -0.2097,0.6 -0.8734,1.33333 -0.6636,0.73333 -1.3566,1.33333 -1.54,1.33333 -0.1833,0 0.2097,-0.6 0.8734,-1.33333 z m -474.13343,-2.85095 c -1.82974,-1.93468 -3.68194,-4.25968 -4.11594,-5.16666 l -0.7892,-1.64906 1.18014,1.66667 c 0.649,0.91667 2.6512,3.24167 4.44926,5.16667 1.79807,1.925 3.1192,3.5 2.93587,3.5 -0.18333,0 -1.8304,-1.58293 -3.66013,-3.51762 z m 432.10833,0.0176 -3.3083,-3.5 3.5,3.30828 c 1.925,1.81954 3.5,3.39454 3.5,3.5 0,0.49746 -0.6176,-0.056 -3.6917,-3.30828 z m -624.80681,0.5 c 0.007,-1.46666 0.14392,-1.98816 0.30338,-1.15889 0.15946,0.82927 0.15341,2.02927 -0.0135,2.66667 -0.16686,0.63739 -0.29734,-0.0411 -0.28994,-1.50778 z M 1186,261.74829 c 0,-0.13843 0.525,-0.66343 1.1667,-1.16667 1.0574,-0.82924 1.0809,-0.80566 0.2517,0.25171 -0.8709,1.1105 -1.4184,1.46365 -1.4184,0.91496 z m -297.58433,-1.44073 c -0.64327,-1.67646 -0.45354,-2.10904 0.3324,-0.75756 0.38913,0.66916 0.56706,1.3571 0.3954,1.52875 -0.17167,0.17165 -0.49914,-0.17539 -0.7278,-0.77119 z M 550.7193,259.61111 c 0.032,-0.77663 0.18996,-0.9346 0.40277,-0.40278 0.19258,0.48125 0.1689,1.05625 -0.0526,1.27778 -0.22152,0.22153 -0.37909,-0.17223 -0.35014,-0.875 z m 205.93737,-1.28255 c 2.65493,-3.19749 2.87833,-3.40371 2.15333,-1.98777 -0.37753,0.73743 -1.38927,1.93529 -2.24827,2.66189 -1.50673,1.27458 -1.5034,1.25083 0.0949,-0.67412 z m 470.03043,1.3381 c 0,-0.36666 0.2908,-1.11666 0.6462,-1.66666 0.3555,-0.55 0.6463,-0.7 0.6463,-0.33334 0,0.36667 -0.2908,1.11667 -0.6463,1.66667 -0.3554,0.55 -0.6462,0.7 -0.6462,0.33333 z M 1189,258 c 0.6637,-0.73334 1.3567,-1.33334 1.54,-1.33334 0.1833,0 -0.2097,0.6 -0.8733,1.33334 -0.6637,0.73333 -1.3567,1.33333 -1.54,1.33333 -0.1834,0 0.2096,-0.6 0.8733,-1.33333 z m -88.5843,-1.02578 c -0.6433,-1.67646 -0.4536,-2.10903 0.3324,-0.75756 0.3891,0.66917 0.567,1.35711 0.3954,1.52876 -0.1717,0.17164 -0.4992,-0.1754 -0.7278,-0.7712 z m 91.3812,-3.29918 c 0.6098,-1.27874 1.2271,-2.20661 1.3718,-2.06196 0.3049,0.30498 -1.7188,4.38692 -2.175,4.38692 -0.168,0 0.1934,-1.04624 0.8032,-2.32496 z m -674.41093,0.60274 c 0.032,-0.77664 0.18996,-0.9346 0.40277,-0.40278 0.19258,0.48124 0.1689,1.05625 -0.0526,1.27778 -0.22153,0.22152 -0.37909,-0.17223 -0.35015,-0.875 z M 552,253.52607 c 0,-0.38288 0.525,-1.10788 1.16667,-1.61111 1.07917,-0.84634 1.09332,-0.81497 0.18864,0.41837 -0.53791,0.73333 -1.06291,1.45833 -1.16666,1.61111 C 552.08489,254.09722 552,253.90895 552,253.52607 Z m 245.38593,-1.24829 c 0.032,-0.77664 0.19,-0.9346 0.4028,-0.40278 0.1926,0.48124 0.16894,1.05625 -0.0527,1.27778 -0.22154,0.22152 -0.37914,-0.17223 -0.3502,-0.875 z m 301.33337,-1.33334 c 0.032,-0.77663 0.19,-0.9346 0.4028,-0.40278 0.1926,0.48125 0.1689,1.05626 -0.053,1.27778 -0.2215,0.22153 -0.3791,-0.17222 -0.3502,-0.875 z m -300.6667,-2.66666 c 0.032,-0.77664 0.19,-0.9346 0.4028,-0.40278 0.1926,0.48124 0.16893,1.05625 -0.0527,1.27778 -0.22153,0.22152 -0.37913,-0.17223 -0.3502,-0.875 z m 86.66667,-0.66667 c 0.032,-0.77663 0.19,-0.9346 0.4028,-0.40278 0.1926,0.48125 0.16893,1.05625 -0.0527,1.27778 -0.22153,0.22153 -0.37913,-0.17223 -0.3502,-0.875 z M 520,246.03934 c 0,-0.34502 0.29657,-0.81061 0.65903,-1.03462 0.37791,-0.23356 0.48967,0.0341 0.26201,0.62732 C 520.47785,246.78698 520,246.9983 520,246.03934 Z m 43.875,-0.49475 c 0.48125,-0.19258 1.05625,-0.1689 1.27778,0.0526 0.22153,0.22153 -0.17223,0.37909 -0.875,0.35015 -0.77663,-0.032 -0.9346,-0.18996 -0.40278,-0.40278 z m 12.25472,-0.70836 c 3.92134,-0.11766 10.52134,-0.11807 14.66667,-6.7e-4 4.14532,0.11716 0.93694,0.21343 -7.12972,0.21393 -8.06667,5.1e-4 -11.4583,-0.0953 -7.53695,-0.21301 z m 222.58955,-0.55845 c 0.032,-0.77664 0.19,-0.9346 0.4028,-0.40278 0.1926,0.48124 0.16893,1.05625 -0.0527,1.27778 -0.22153,0.22152 -0.37913,-0.17223 -0.3502,-0.875 z m 167.0702,0.55783 46.12283,-0.17799 0.2917,-1.67039 c 0.2657,-1.52154 0.2845,-1.50629 0.2105,0.17119 L 1012.3333,245 966,245.0068 l -46.33333,0.007 z m 264.92983,-0.55783 c 0.032,-0.77664 0.19,-0.9346 0.4028,-0.40278 0.1926,0.48124 0.1689,1.05625 -0.053,1.27778 -0.2215,0.22152 -0.3791,-0.17223 -0.3502,-0.875 z m -346.61403,-0.94445 c 0,-0.91667 0.15133,-1.29167 0.33626,-0.83333 0.18494,0.45833 0.18494,1.20833 0,1.66666 -0.18493,0.45834 -0.33626,0.0833 -0.33626,-0.83333 z m 213.28063,0.27778 c 0.032,-0.77663 0.19,-0.9346 0.4028,-0.40278 0.1926,0.48125 0.169,1.05625 -0.053,1.27778 -0.2216,0.22153 -0.3792,-0.17223 -0.3502,-0.875 z m -574.92607,-1.46442 c 0.65152,-1.20265 2.227,-3.15265 3.50108,-4.33333 l 2.3165,-2.1467 -2.30538,2.67266 c -1.26795,1.46996 -2.84344,3.41996 -3.50108,4.33333 -1.15338,1.6019 -1.15378,1.58329 -0.0111,-0.52596 z m 240.9261,0.13109 c 0.032,-0.77664 0.19,-0.9346 0.4028,-0.40278 0.1926,0.48124 0.16894,1.05625 -0.0527,1.27778 -0.22154,0.22152 -0.37914,-0.17223 -0.3502,-0.875 z m -62.66666,-2 c 0.032,-0.77664 0.19,-0.9346 0.4028,-0.40278 0.1926,0.48124 0.16893,1.05625 -0.0527,1.27778 -0.22153,0.22152 -0.37913,-0.17223 -0.3502,-0.875 z m 530.79563,-4.94445 c 0,-1.65 0.13,-2.325 0.2889,-1.5 0.1589,0.825 0.1589,2.175 0,3 -0.1589,0.825 -0.2889,0.15 -0.2889,-1.5 z m -702.60884,0.15199 c 0.52748,-0.85348 4.42727,-3.73962 4.42727,-3.27651 0,0.16478 -1.10134,1.13964 -2.44743,2.16635 -1.34609,1.02671 -2.23701,1.52628 -1.97984,1.11016 z m 171.81321,-5.87421 c 0.032,-0.77663 0.19,-0.9346 0.4028,-0.40278 0.1926,0.48125 0.16893,1.05625 -0.0527,1.27778 -0.22153,0.22153 -0.37913,-0.17223 -0.3502,-0.875 z m -160.0526,-0.94445 c 0.55,-0.35544 1.3,-0.64624 1.66666,-0.64624 0.36667,0 0.21667,0.2908 -0.33333,0.64624 -0.55,0.35544 -1.3,0.64625 -1.66667,0.64625 -0.36666,0 -0.21666,-0.29081 0.33334,-0.64625 z m 592.05263,-0.38888 c 0.032,-0.77664 0.19,-0.9346 0.4028,-0.40278 0.1926,0.48124 0.1689,1.05625 -0.053,1.27778 -0.2215,0.22152 -0.3791,-0.17223 -0.3502,-0.875 z m 62.6666,-0.66667 c 0.032,-0.77663 0.19,-0.9346 0.4028,-0.40278 0.1926,0.48125 0.169,1.05625 -0.053,1.27778 -0.2216,0.22153 -0.3792,-0.17223 -0.3502,-0.875 z m -311.3333,-0.66667 c 0.032,-0.77663 0.19,-0.9346 0.4028,-0.40278 0.1926,0.48125 0.16893,1.05626 -0.0527,1.27778 -0.22153,0.22153 -0.37913,-0.17222 -0.3502,-0.875 z m 128.0527,-0.27778 c 0,-0.91666 0.1513,-1.29166 0.3362,-0.83333 0.185,0.45833 0.185,1.20833 0,1.66667 -0.1849,0.45833 -0.3362,0.0833 -0.3362,-0.83334 z m 85.3333,0 c 0,-0.91666 0.1513,-1.29166 0.3363,-0.83333 0.1849,0.45833 0.1849,1.20833 0,1.66667 -0.185,0.45833 -0.3363,0.0833 -0.3363,-0.83334 z m -298.71933,-1.05555 c 0.032,-0.77663 0.19,-0.9346 0.4028,-0.40278 0.1926,0.48125 0.16893,1.05625 -0.0527,1.27778 -0.22153,0.22153 -0.37913,-0.17223 -0.3502,-0.875 z m 432.00003,0 c 0.032,-0.77663 0.19,-0.9346 0.4028,-0.40278 0.1926,0.48125 0.1689,1.05625 -0.053,1.27778 -0.2215,0.22153 -0.3791,-0.17223 -0.3502,-0.875 z m -676.8443,-0.0665 c 0.48125,-0.19258 1.05625,-0.1689 1.27778,0.0526 0.22153,0.22152 -0.17223,0.37909 -0.875,0.35014 -0.77663,-0.032 -0.9346,-0.18996 -0.40278,-0.40277 z m 6.625,-0.65278 c 0.45833,-0.18494 1.20833,-0.18494 1.66667,0 0.45833,0.18494 0.0833,0.33626 -0.83334,0.33626 -0.91666,0 -1.29166,-0.15132 -0.83333,-0.33626 z m 72.32133,-3.55847 c 0,-1.28333 0.1372,-1.80833 0.30489,-1.16667 0.16768,0.64167 0.16768,1.69167 0,2.33334 -0.16769,0.64166 -0.30489,0.11666 -0.30489,-1.16667 z m 285.89794,0.94445 c 0.032,-0.77664 0.19,-0.9346 0.4028,-0.40278 0.1926,0.48124 0.16893,1.05625 -0.0527,1.27778 -0.22153,0.22152 -0.37913,-0.17223 -0.3502,-0.875 z m 179.33333,0 c 0.032,-0.77664 0.19,-0.9346 0.4028,-0.40278 0.1926,0.48124 0.1689,1.05625 -0.053,1.27778 -0.2215,0.22152 -0.3791,-0.17223 -0.3502,-0.875 z m -212.66667,-2.66667 c 0.032,-0.77663 0.19,-0.9346 0.4028,-0.40278 0.1926,0.48125 0.16894,1.05625 -0.0527,1.27778 -0.22154,0.22153 -0.37914,-0.17223 -0.3502,-0.875 z m 125.33337,-0.66667 c 0.032,-0.77663 0.19,-0.9346 0.4028,-0.40278 0.1926,0.48125 0.1689,1.05626 -0.053,1.27778 -0.2215,0.22153 -0.3791,-0.17222 -0.3502,-0.875 z m -413.33333,-0.66666 c 0.032,-0.77664 0.18996,-0.9346 0.40277,-0.40278 0.19258,0.48124 0.1689,1.05625 -0.0526,1.27778 -0.22153,0.22152 -0.37909,-0.17223 -0.35015,-0.875 z m 322.63443,-0.61112 c 0,-0.36666 0.2908,-1.11666 0.64627,-1.66666 0.35546,-0.55 0.64626,-0.7 0.64626,-0.33334 0,0.36667 -0.2908,1.11667 -0.64626,1.66667 -0.35547,0.55 -0.64627,0.7 -0.64627,0.33333 z M 1136.6667,216 c 0.3924,-0.73334 0.8636,-1.33334 1.0469,-1.33334 0.1833,0 0.012,0.6 -0.3803,1.33334 -0.3924,0.73333 -0.8636,1.33333 -1.0469,1.33333 -0.1833,0 -0.012,-0.6 0.3803,-1.33333 z m -159.58437,-0.35911 c -0.64326,-1.67646 -0.45353,-2.10903 0.3324,-0.75756 0.38914,0.66917 0.56707,1.35711 0.3954,1.52875 -0.17166,0.17165 -0.49913,-0.17539 -0.7278,-0.77119 z m -344.97707,-0.97423 c 0,-0.91666 0.15132,-1.29166 0.33626,-0.83333 0.18494,0.45833 0.18494,1.20833 0,1.66667 -0.18494,0.45833 -0.33626,0.0833 -0.33626,-0.83334 z m 73.83487,-0.55482 c 0.35954,-0.67183 1.17747,-1.64683 1.81754,-2.16667 0.7202,-0.58487 0.5592,-0.11924 -0.42227,1.22149 -1.751,2.39184 -2.40753,2.83658 -1.39527,0.94518 z m 215.39654,0.21259 c 0.0111,-2.16563 10.66173,-12.9911 12.78133,-12.9911 0.40413,0 -0.43213,0.78056 -1.85833,1.73458 -3.79134,2.53619 -6.12234,4.84654 -8.66674,8.58985 -1.2428,1.82844 -2.25806,3.02844 -2.25626,2.66667 z m 266.04133,-3.83994 c -2.4523,-2.81059 -2.8104,-3.39763 -1.1087,-1.81783 2.2374,2.07716 5.4981,6.02511 4.9428,5.9845 -0.1167,-0.009 -1.842,-1.88353 -3.8341,-4.16667 z m 40.371,3.1564 c -0.6433,-1.67646 -0.4535,-2.10903 0.3324,-0.75756 0.3891,0.66917 0.5671,1.35711 0.3954,1.52875 -0.1717,0.17165 -0.4991,-0.17539 -0.7278,-0.77119 z m -632.31949,-1.47423 c -0.72747,-1.70002 -0.71101,-1.73924 0.22632,-0.53924 0.55596,0.71174 1.01084,1.53674 1.01084,1.83333 0,1.01327 -0.45222,0.54024 -1.23716,-1.29409 z M 1138,213.74829 c 0,-0.13843 0.525,-0.66343 1.1667,-1.16667 1.0574,-0.82924 1.0809,-0.80566 0.2517,0.25171 -0.8709,1.1105 -1.4184,1.46365 -1.4184,0.91496 z m -163.39373,-2.58163 c -0.81647,-1.19166 -2.41187,-3.21382 -3.5454,-4.49367 -2.00054,-2.25887 -2.00514,-2.27839 -0.15674,-0.66667 1.85454,1.61708 6.14587,7.32701 5.5066,7.32701 -0.17593,0 -0.988,-0.975 -1.80446,-2.16667 z m -343.2203,-0.22222 c 0.032,-0.77663 0.18996,-0.9346 0.40277,-0.40278 0.19258,0.48125 0.1689,1.05626 -0.0526,1.27778 -0.22153,0.22153 -0.37909,-0.17222 -0.35015,-0.875 z m 122.91596,-1.77778 -2.63526,-2.83333 2.83333,2.6353 c 1.55833,1.44941 2.83333,2.72441 2.83333,2.83333 0,0.50439 -0.5806,-3.2e-4 -3.0314,-2.6353 z m 347.04897,1.93082 c -0.01,-0.31304 1.0577,-2.61538 2.3719,-5.1163 3.275,-6.23243 10.3967,-14.80383 15.6105,-18.7885 2.3834,-1.82144 2.9834,-2.16848 1.3334,-0.7712 -7.1578,6.06153 -12.7127,12.83955 -16.7402,20.42628 -1.4069,2.6504 -2.566,4.56278 -2.5756,4.24972 z m 38.6491,0.0273 c 0,-0.11473 0.975,-1.08973 2.1667,-2.16667 l 2.1666,-1.95806 -1.958,2.16667 c -1.8252,2.01964 -2.3753,2.4731 -2.3753,1.95806 z m 86.4157,-0.81717 c -0.6433,-1.67646 -0.4536,-2.10903 0.3324,-0.75756 0.3891,0.66917 0.567,1.35711 0.3954,1.52876 -0.1717,0.17164 -0.4992,-0.1754 -0.7278,-0.7712 z M 534.95505,210.07273 C 535.43069,209.30314 538,207.75095 538,208.2332 c 0,0.15406 -0.78694,0.79574 -1.74875,1.42594 -0.96181,0.6302 -1.5451,0.81632 -1.2962,0.41359 z M 710,209 c 0.86113,-0.91667 1.71573,-1.66667 1.89907,-1.66667 0.18333,0 -0.37127,0.75 -1.2324,1.66667 -0.86114,0.91666 -1.71574,1.66666 -1.89907,1.66666 -0.18333,0 0.37127,-0.75 1.2324,-1.66666 z m 297.749,0.64089 c -0.6433,-1.67646 -0.4535,-2.10903 0.3324,-0.75756 0.3891,0.66917 0.5671,1.35711 0.3954,1.52875 -0.1717,0.17165 -0.4991,-0.17539 -0.7278,-0.77119 z M 529.33333,202 c -2.20565,-4.4 -3.86028,-8 -3.67694,-8 0.18333,0 2.13796,3.6 4.34361,8 2.20565,4.4 3.86028,8 3.67695,8 -0.18334,0 -2.13796,-3.6 -4.34362,-8 z m 62,4.8677 c -1.75064,-1.81498 -2.29198,-2.64772 -1.29988,-1.9996 1.40146,0.91556 5.1185,5.15818 4.48651,5.12088 -0.10265,-0.006 -1.53663,-1.41063 -3.18663,-3.12128 z m 202.4528,0.76798 c -1.56606,-3.28418 -1.3458,-3.84303 0.29154,-0.73944 0.74366,1.4096 1.23413,2.68083 1.09,2.82496 -0.14414,0.14413 -0.7658,-0.79436 -1.38154,-2.08552 z m -255.11946,0.0373 c 0,-0.45618 4.08194,-2.47995 4.38691,-2.17498 0.14465,0.14466 -0.78322,0.76192 -2.06195,1.37171 -1.27873,0.60978 -2.32496,0.97125 -2.32496,0.80327 z m 174,-0.59138 c 0,-0.13843 0.525,-0.66343 1.16666,-1.16666 1.0574,-0.82925 1.08094,-0.80567 0.25174,0.2517 -0.87094,1.1105 -1.4184,1.46366 -1.4184,0.91496 z m 432.00003,0 c 0,-0.13843 0.525,-0.66343 1.1666,-1.16666 1.0574,-0.82925 1.081,-0.80567 0.2518,0.2517 -0.871,1.1105 -1.4184,1.46366 -1.4184,0.91496 z m 36.6666,-1.80786 c -1.4358,-1.17445 -1.464,-1.26423 -0.2038,-0.64826 0.8046,0.39325 1.6473,1.01339 1.8727,1.37808 0.6017,0.9736 0.1976,0.79688 -1.6689,-0.72982 z m 40.665,-3.37606 c -3.7132,-5.73059 -8.2852,-10.81777 -13.0955,-14.57128 -5.1379,-4.00916 -6.4174,-5.13466 -4.9028,-4.31264 1.9601,1.06374 9.0401,6.91662 11.4074,9.43012 2.5709,2.72975 7.1927,8.91661 8.5082,11.38943 1.4074,2.64553 0.3775,1.60575 -1.9173,-1.93563 z m -504.84277,2.01957 c 0.45227,-0.45561 0.9902,-0.66045 1.19547,-0.45519 0.2052,0.20526 -0.1648,0.57804 -0.82227,0.82839 -0.95013,0.36179 -1.02666,0.28521 -0.3732,-0.3732 z m 249.51114,-0.64351 c -1.43587,-1.17445 -1.46407,-1.26423 -0.2038,-0.64826 0.8046,0.39325 1.64726,1.01339 1.87266,1.37808 0.60174,0.9736 0.1976,0.79688 -1.66886,-0.72982 z M 629.08236,202.9742 c -0.64332,-1.67646 -0.45354,-2.10903 0.33235,-0.75756 0.38913,0.66917 0.56707,1.35711 0.39542,1.52876 -0.17164,0.17164 -0.49914,-0.1754 -0.72777,-0.7712 z m 116.25097,0.35911 c -0.55,-0.35544 -0.7,-0.64625 -0.33333,-0.64625 0.36667,0 1.11667,0.29081 1.66667,0.64625 0.55,0.35544 0.7,0.64625 0.33333,0.64625 -0.36667,0 -1.11667,-0.29081 -1.66667,-0.64625 z M 893.129,201.28208 c 0.6624,-1.1282 1.63033,-2.4032 2.151,-2.83334 0.52073,-0.43014 0.10587,0.49292 -0.92187,2.05126 -2.15806,3.27212 -3.00906,3.81363 -1.22913,0.78208 z m 108.893,-2.24831 c -3.24913,-4.987 -10.0046,-12.12097 -13.9506,-14.7323 -3.22247,-2.13255 -3.65113,-2.90387 -0.65153,-1.1725 3.1532,1.82009 11.4582,10.26848 14.40453,14.65331 3.204,4.76825 3.6684,5.55105 3.2933,5.55105 -0.162,0 -1.555,-1.9348 -3.0957,-4.29956 z m -211.10113,2.79956 c -0.2702,-0.45833 -0.91954,-1.58333 -1.443,-2.5 -0.91387,-1.60015 -0.9072,-1.61345 0.16733,-0.33333 1.35407,1.61321 2.52133,3.66666 2.08427,3.66666 -0.1746,0 -0.53847,-0.375 -0.8086,-0.83333 z m -64.3792,-0.95541 c 0.48126,-0.19258 1.05626,-0.1689 1.2778,0.0526 0.22153,0.22153 -0.17227,0.3791 -0.875,0.35015 -0.77667,-0.032 -0.9346,-0.18996 -0.4028,-0.40277 z m 11.33333,0 c 0.48127,-0.19258 1.05627,-0.1689 1.2778,0.0526 0.22153,0.22153 -0.17227,0.3791 -0.875,0.35015 -0.77667,-0.032 -0.9346,-0.18996 -0.4028,-0.40277 z m 420.6667,0 c 0.4812,-0.19258 1.0562,-0.1689 1.2778,0.0526 0.2215,0.22153 -0.1723,0.3791 -0.875,0.35015 -0.7767,-0.032 -0.9346,-0.18996 -0.4028,-0.40277 z m 11.3333,0 c 0.4813,-0.19258 1.0563,-0.1689 1.2778,0.0526 0.2215,0.22153 -0.1723,0.3791 -0.875,0.35015 -0.7767,-0.032 -0.9346,-0.18996 -0.4028,-0.40277 z m -608.66667,-0.66666 c 0.48125,-0.19258 1.05626,-0.1689 1.27778,0.0526 0.22153,0.22152 -0.17222,0.37909 -0.875,0.35014 -0.77663,-0.032 -0.9346,-0.18996 -0.40278,-0.40277 z m -182.2334,-31.87793 c 1.2e-4,-17.6 0.0862,-24.70426 0.19128,-15.78725 0.10507,8.91702 0.10496,23.31702 -2.4e-4,32 -0.1052,8.68299 -0.19118,1.38725 -0.19104,-16.21275 z M 941.875,198.87792 c 0.48127,-0.19258 1.05627,-0.1689 1.2778,0.0526 0.22153,0.22153 -0.17227,0.3791 -0.875,0.35015 -0.77667,-0.032 -0.9346,-0.18996 -0.4028,-0.40277 z m 6.29167,-0.67081 c 0.64166,-0.16768 1.69166,-0.16768 2.33333,0 0.64167,0.16769 0.11667,0.30489 -1.16667,0.30489 -1.28333,0 -1.80833,-0.1372 -1.16666,-0.30489 z m -321.79048,-1.34503 c -0.36178,-0.95013 -0.28521,-1.0267 0.3732,-0.3732 0.45562,0.45223 0.66045,0.99016 0.45519,1.19542 -0.20526,0.20526 -0.57803,-0.16474 -0.82839,-0.82222 z m 270.84448,-1.32618 c 1.69506,-2.43108 10.44086,-10.62 12.446,-11.65348 0.73333,-0.37798 0.13333,0.28941 -1.33334,1.48308 -1.46666,1.19367 -4.90126,4.44975 -7.63246,7.23574 -2.73127,2.78598 -4.29734,4.10658 -3.4802,2.93466 z M 623.6887,192.69846 c -1.85033,-2.67002 -7.03591,-7.80471 -10.6887,-10.58378 -1.65805,-1.26146 -1.71505,-1.38388 -0.33333,-0.71599 2.00482,0.96909 11.47102,10.32 12.58796,12.43464 1.23592,2.33991 0.44474,1.76652 -1.56593,-1.13487 z m 158.8337,-1.99976 c -5.14413,-5.28912 -8.68833,-7.88188 -16.18907,-11.84316 -6.17773,-3.26256 -6.29306,-3.86155 -0.14766,-0.76691 7.384,3.71835 14.37746,9.06595 18.84366,14.40902 1.30374,1.55962 2.2804,2.82875 2.17054,2.82028 -0.10994,-0.008 -2.2148,-2.08713 -4.67747,-4.61923 z M 699.58,180.66666 c 0,-3.85 0.11013,-5.425 0.2448,-3.5 0.13467,1.925 0.13467,5.075 0,7 -0.13467,1.925 -0.2448,0.35 -0.2448,-3.5 z m 4.42,3.31982 c 2.01667,-1.88438 4.26667,-3.74287 5,-4.12996 1.6832,-0.88848 1.61713,-0.8265 -4,3.75219 l -4.66667,3.80394 z m -181,1.66811 c 0.73333,-0.59709 1.93333,-1.38019 2.66667,-1.74022 L 527,183.25978 l -1.33333,1.08562 c -0.73334,0.5971 -1.93334,1.3802 -2.66667,1.74022 l -1.33333,0.6546 z m 601,-1.94101 c 0,-0.18334 0.6,-0.65445 1.3333,-1.04692 0.7334,-0.39246 1.3334,-0.56358 1.3334,-0.38024 0,0.18333 -0.6,0.65444 -1.3334,1.04691 -0.7333,0.39247 -1.3333,0.56358 -1.3333,0.38025 z m 76.9607,-2.0837 c -1.2426,-0.99559 -1.2344,-1.0079 0.206,-0.30987 0.825,0.39979 1.5,0.86634 1.5,1.03677 0,0.51015 -0.3458,0.36283 -1.706,-0.7269 z m -287.62737,0.0837 c 0,-0.18334 0.6,-0.65445 1.33334,-1.04692 C 915.4,180.2742 916,180.10308 916,180.28642 c 0,0.18333 -0.6,0.65444 -1.33333,1.04691 -0.73334,0.39247 -1.33334,0.56358 -1.33334,0.38025 z m 69.6274,-0.75036 c -1.24266,-0.9956 -1.23446,-1.0079 0.20594,-0.30988 0.825,0.3998 1.5,0.86634 1.5,1.03678 0,0.51014 -0.34574,0.36282 -1.70594,-0.7269 z m 144.37257,0.75036 c 0,-0.18334 0.6,-0.65445 1.3334,-1.04692 0.7333,-0.39246 1.3333,-0.56358 1.3333,-0.38024 0,0.18333 -0.6,0.65444 -1.3333,1.04691 -0.7334,0.39247 -1.3334,0.56358 -1.3334,0.38025 z M 533.33333,180 c 0.55,-0.35544 1.3,-0.64625 1.66667,-0.64625 0.36667,0 0.21667,0.29081 -0.33333,0.64625 -0.55,0.35544 -1.3,0.64624 -1.66667,0.64624 -0.36667,0 -0.21667,-0.2908 0.33333,-0.64624 z M 608,179.33333 c -1.28333,-0.70259 -2.09343,-1.29002 -1.80023,-1.30539 0.70647,-0.037 4.4669,1.91816 4.4669,2.32251 0,0.43634 -0.039,0.42146 -2.66667,-1.01712 z m 311.33333,-1 c 0.91667,-0.52401 1.96667,-0.95275 2.33334,-0.95275 0.36666,0 -0.0833,0.42874 -1,0.95275 -0.91667,0.52401 -1.96667,0.95275 -2.33334,0.95275 -0.36666,0 0.0833,-0.42874 1,-0.95275 z m 213.33337,0.33333 c 0.55,-0.35544 1.3,-0.64624 1.6666,-0.64624 0.3667,0 0.2167,0.2908 -0.3333,0.64624 -0.55,0.35544 -1.3,0.64625 -1.6667,0.64625 -0.3666,0 -0.2166,-0.29081 0.3334,-0.64625 z m -156.6667,-1 c -0.91667,-0.52401 -1.36667,-0.95275 -1,-0.95275 0.36667,0 1.41667,0.42874 2.33333,0.95275 0.91667,0.52402 1.36667,0.95276 1,0.95276 -0.36666,0 -1.41666,-0.42874 -2.33333,-0.95276 z M 1193.3333,178 c -0.55,-0.35544 -0.7,-0.64625 -0.3333,-0.64625 0.3667,0 1.1167,0.29081 1.6667,0.64625 0.55,0.35544 0.7,0.64624 0.3333,0.64624 -0.3667,0 -1.1167,-0.2908 -1.6667,-0.64624 z m -56,-1.33334 c 0.55,-0.35544 1.3,-0.64624 1.6667,-0.64624 0.3667,0 0.2167,0.2908 -0.3333,0.64624 -0.55,0.35544 -1.3,0.64625 -1.6667,0.64625 -0.3667,0 -0.2167,-0.29081 0.3333,-0.64625 z m -207.4583,-2.4554 c 0.48127,-0.19258 1.05627,-0.1689 1.2778,0.0526 0.22153,0.22152 -0.17227,0.37909 -0.875,0.35014 -0.77667,-0.032 -0.9346,-0.18996 -0.4028,-0.40277 z m -338.66667,-0.66667 c 0.48125,-0.19258 1.05626,-0.1689 1.27778,0.0526 0.22153,0.22153 -0.17222,0.37909 -0.875,0.35015 -0.77663,-0.032 -0.9346,-0.18996 -0.40278,-0.40278 z m 132.66667,0 c 0.48127,-0.19258 1.05627,-0.1689 1.2778,0.0526 0.22153,0.22153 -0.17227,0.37909 -0.875,0.35015 -0.77667,-0.032 -0.9346,-0.18996 -0.4028,-0.40278 z m 240,0 c 0.48127,-0.19258 1.05627,-0.1689 1.2778,0.0526 0.22153,0.22153 -0.17227,0.37909 -0.875,0.35015 -0.77667,-0.032 -0.9346,-0.18996 -0.4028,-0.40278 z m 216,0 c 0.4813,-0.19258 1.0563,-0.1689 1.2778,0.0526 0.2215,0.22153 -0.1723,0.37909 -0.875,0.35015 -0.7767,-0.032 -0.9346,-0.18996 -0.4028,-0.40278 z m -620,-0.66667 c 0.48125,-0.19258 1.05625,-0.1689 1.27778,0.0526 0.22153,0.22153 -0.17223,0.3791 -0.875,0.35015 -0.77663,-0.032 -0.9346,-0.18996 -0.40278,-0.40277 z m 28,0 c 0.48125,-0.19258 1.05625,-0.1689 1.27778,0.0526 0.22153,0.22153 -0.17223,0.3791 -0.875,0.35015 -0.77663,-0.032 -0.9346,-0.18996 -0.40278,-0.40277 z m 349.33333,0 c 0.48127,-0.19258 1.05627,-0.1689 1.2778,0.0526 0.22154,0.22153 -0.17226,0.3791 -0.875,0.35015 -0.77666,-0.032 -0.9346,-0.18996 -0.4028,-0.40277 z m 22.66667,0 c 0.48127,-0.19258 1.05627,-0.1689 1.2778,0.0526 0.22153,0.22153 -0.17227,0.3791 -0.875,0.35015 -0.77667,-0.032 -0.9346,-0.18996 -0.4028,-0.40277 z m 192,0 c 0.4813,-0.19258 1.0563,-0.1689 1.2778,0.0526 0.2215,0.22153 -0.1723,0.3791 -0.875,0.35015 -0.7767,-0.032 -0.9346,-0.18996 -0.4028,-0.40277 z m 24,0 c 0.4813,-0.19258 1.0563,-0.1689 1.2778,0.0526 0.2215,0.22153 -0.1723,0.3791 -0.875,0.35015 -0.7767,-0.032 -0.9346,-0.18996 -0.4028,-0.40277 z m -610.66667,-0.66666 c 0.48125,-0.19258 1.05626,-0.1689 1.27778,0.0526 0.22153,0.22152 -0.17222,0.37909 -0.875,0.35014 -0.77663,-0.032 -0.9346,-0.18996 -0.40278,-0.40277 z m 16.66667,0 c 0.48125,-0.19258 1.05625,-0.1689 1.27778,0.0526 0.22153,0.22152 -0.17223,0.37909 -0.875,0.35014 -0.77663,-0.032 -0.9346,-0.18996 -0.40278,-0.40277 z m 150.625,0.0139 c 0.45833,-0.18494 1.20833,-0.18494 1.66667,0 0.45833,0.18494 0.0833,0.33626 -0.83334,0.33626 -0.91666,0 -1.29166,-0.15132 -0.83333,-0.33626 z m 10.346,-0.0205 c 0.64867,-0.16903 1.54867,-0.15792 2,0.0247 0.4514,0.18262 -0.0793,0.32091 -1.17933,0.30733 -1.1,-0.0136 -1.46927,-0.163 -0.82067,-0.33203 z m 199.32067,0.003 c 0.64166,-0.16768 1.69166,-0.16768 2.33333,0 0.64167,0.16769 0.11667,0.30489 -1.16667,0.30489 -1.28333,0 -1.80833,-0.1372 -1.16666,-0.30489 z m 11.33333,0 c 0.64167,-0.16768 1.69167,-0.16768 2.33333,0 0.64167,0.16769 0.11667,0.30489 -1.16666,0.30489 -1.28334,0 -1.80834,-0.1372 -1.16667,-0.30489 z m 204,0 c 0.6417,-0.16768 1.6917,-0.16768 2.3333,0 0.6417,0.16769 0.1167,0.30489 -1.1666,0.30489 -1.2834,0 -1.8084,-0.1372 -1.1667,-0.30489 z m 11.6745,-0.0119 c 0.8292,-0.15946 2.0292,-0.15341 2.6666,0.0135 0.6374,0.16686 -0.041,0.29733 -1.5078,0.28993 -1.4666,-0.007 -1.9882,-0.14393 -1.1588,-0.30339 z M 832.8732,126.83493 c 5.0636,-0.1134 13.1636,-0.11311 18,6.5e-4 4.8364,0.11375 0.69347,0.20653 -9.20653,0.20617 -9.9,-3.5e-4 -13.85707,-0.0934 -8.79347,-0.20682 z"
         id="path245" />
      <path
         style="fill:#f9f9f9;stroke-width:0.666667"
         d="m 78.420293,384.78855 c -0.217326,-0.98371 -1.16484,-4.63856 -2.105586,-8.12189 -0.940747,-3.48333 -2.894907,-10.83333 -4.34258,-16.33333 -3.38072,-12.84407 -8.107636,-30.60264 -9.848534,-37 -0.74835,-2.75 -2.431558,-9.05 -3.740459,-14 -1.308902,-4.95 -3.297765,-12.45 -4.419695,-16.66667 -1.121931,-4.21666 -5.78728,-21.76666 -10.367444,-39 -4.580162,-17.23333 -9.524814,-35.77038 -10.988114,-41.19344 l -2.660545,-9.8601 1.405061,-1.97323 c 0.772784,-1.08527 1.649019,-1.97323 1.947189,-1.97323 0.29817,0 0.899923,1.425 1.33723,3.16667 0.437306,1.74167 4.244842,15.31667 8.46119,30.16667 4.216348,14.85 11.237081,39.6 15.601629,55 25.057212,88.41261 23.481192,83.19975 25.300365,83.68369 0.916667,0.24384 5.566667,0.64522 10.333333,0.89194 12.856707,0.66546 17.944187,1.21606 16.857167,1.82438 -0.72946,0.40822 -22.179807,9.15075 -30.949453,12.61408 -1.204594,0.47572 -1.486887,0.28571 -1.820754,-1.22554 z m 71.246377,-34.48911 c -14.17374,-1.44837 -22.06524,-2.23097 -33.33334,-3.30569 -5.86666,-0.55954 -12.46666,-1.19666 -14.66666,-1.41582 -2.200003,-0.21916 -6.090963,-0.58884 -8.646583,-0.82153 l -4.64658,-0.42307 -3.60124,-11.33334 c -1.98068,-6.23333 -4.426047,-14.03333 -5.434147,-17.33333 -1.0081,-3.3 -5.195587,-16.65 -9.305527,-29.66666 -4.109936,-13.01667 -8.166152,-25.91667 -9.013813,-28.66667 -0.847661,-2.75 -4.150659,-13.25 -7.339995,-23.33333 -3.189337,-10.08334 -6.494689,-20.58334 -7.345227,-23.33334 -0.850537,-2.75 -2.623535,-8.39946 -3.939995,-12.55436 C 41.077103,193.9574 40,190.04098 40,189.40916 c 0,-0.63184 1.340357,-3.05226 2.978573,-5.37874 l 2.978572,-4.22994 0.74216,1.93309 c 0.408188,1.0632 1.43294,4.03309 2.277224,6.59976 0.844286,2.56667 3.393517,9.91667 5.664959,16.33333 2.271442,6.41667 6.631236,18.86667 9.688432,27.66667 3.057193,8.8 7.560567,21.7 10.007487,28.66667 2.44692,6.96666 5.89912,16.86666 7.671553,22 7.298653,21.13836 11.29384,32.36393 11.964047,33.61622 0.9118,1.70371 -3.825814,0.96635 49.360323,7.68246 57.54713,7.2668 66.24943,8.39519 66.47355,8.61931 0.20311,0.20311 -22.68981,9.75208 -39.25127,16.37227 -5.78524,2.31256 -7.38,2.38961 -20.88894,1.00918 z"
         id="path243" />
      <path
         style="fill:#f9f9f9;stroke-width:0.666667"
         d="M 666,257.33333 V 174 h 16.66667 16.66666 v 6.66666 c 0,4.03602 0.2652,6.66667 0.67214,6.66667 0.36966,0 2.82726,-1.80958 5.4614,-4.02129 5.77126,-4.84577 11.06553,-7.53545 18.1998,-9.24616 21.21286,-5.08658 43.27886,0.98634 58.35193,16.05939 11.1268,11.12677 17.31293,27.16112 17.31293,44.87473 0,28.19102 -15.15613,50.87741 -39.7034,59.42998 -3.382,1.17834 -8.5994,2.50071 -11.59426,2.93862 -6.71034,0.98118 -18.97634,0.49079 -24.25147,-0.96956 -5.96667,-1.65178 -13.2244,-5.47227 -17.30527,-9.1095 C 704.4472,285.48029 702.4594,284 702.0598,284 c -0.5128,0 -0.72647,8.33334 -0.72647,28.33333 v 28.33333 H 683.66667 666 Z m 72.18853,11.92545 c 6.6604,-1.0334 11.18234,-3.23154 15.90427,-7.73119 6.94693,-6.6199 9.9072,-14.37924 9.9072,-25.96818 0,-8.15023 -0.82113,-12.50831 -3.37993,-17.9389 -5.13974,-10.9081 -15.11154,-16.97349 -27.84614,-16.93755 -9.99986,0.0282 -16.56933,2.49946 -22.57906,8.49359 -6.29574,6.27945 -9.50507,14.99849 -9.50507,25.82345 0,20.78548 11.70207,33.88966 31.18247,34.9187 0.84646,0.0447 3.6888,-0.25225 6.31626,-0.65992 z M 553,297.56637 c -10.25149,-1.6368 -19.51146,-6.02497 -25.58603,-12.12487 -7.53724,-7.56866 -10.52068,-15.5189 -9.91003,-26.40827 0.91523,-16.32085 11.20053,-27.22079 30.16273,-31.96521 6.69066,-1.67403 17.01004,-2.40136 34.07063,-2.40136 H 598 L 597.9928,221.5 c -0.0165,-7.23494 -4.09033,-14.55648 -9.84106,-17.68641 -5.10763,-2.77993 -10.2178,-3.81459 -18.79179,-3.80483 -12.3161,0.014 -24.38234,3.2041 -32.28012,8.53425 l -2.77962,1.87594 -6.12508,-11.84041 -6.12509,-11.8404 3.80832,-2.38297 c 4.61171,-2.88567 15.20798,-7.09733 22.47499,-8.93304 21.2884,-5.37763 43.44367,-3.99948 58.98551,3.66915 8.72537,4.30526 15.98727,11.4733 19.86963,19.61284 5.63104,11.80568 6.23783,18.17582 5.99753,62.96254 l -0.18601,34.66667 -16.1454,0.17847 -16.14541,0.17847 -0.18793,-7.84513 -0.18794,-7.84514 -4.54362,4.77367 c -4.98221,5.23448 -10.67682,8.67533 -17.45638,10.54765 -3.97506,1.0978 -21.01155,1.93509 -25.33333,1.24505 z m 23.11477,-22.90285 c 9.39674,-1.3592 16.37095,-5.40384 19.88599,-11.53275 1.88003,-3.27806 1.98707,-3.86691 1.99299,-10.96411 l 0.006,-7.5 -13.5,0.0218 c -16.08237,0.026 -21.40144,0.61758 -26.06429,2.8989 -4.19978,2.05476 -6.27378,4.66915 -7.07067,8.91294 -1.72194,9.17006 3.79667,16.4688 13.708,18.12981 4.55103,0.76269 5.97011,0.76699 11.04173,0.0334 z m 362.64236,22.30965 c -28.78013,-5.05009 -49.13986,-24.26945 -53.757,-50.74602 -5.05606,-28.99363 9.5788,-56.28256 36.70674,-68.44517 23.85926,-10.69712 55.61706,-5.34234 72.99546,12.30802 7.85467,7.97752 13.21837,17.50644 15.97727,28.38444 1.5451,6.0919 2.3728,17.00144 1.699,22.39395 l -0.4745,3.79827 h -46.37063 -46.37054 l 0.4352,2.72176 c 1.16054,7.25747 7.85607,15.22304 15.90167,18.91792 6.442,2.95842 11.36047,3.90748 20.16687,3.89138 11.23746,-0.0205 20.25146,-2.90862 26.93506,-8.62995 l 2.93507,-2.5125 2.39827,2.73934 c 1.31906,1.50664 5.39453,5.95619 9.0566,9.88789 l 6.65833,7.14853 -3.325,3.027 c -7.59813,6.91716 -17.6704,11.9748 -28.9752,14.54942 -6.40733,1.45925 -25.6018,1.79242 -32.59267,0.56572 z M 980,223.73689 c 0,-2.33791 -2.85347,-9.72895 -4.9558,-12.83635 -4.59547,-6.79257 -11.62547,-10.96704 -20.50787,-12.17774 -9.97906,-1.36018 -19.6726,1.04362 -25.79066,6.39556 -4.3962,3.84568 -6.9742,7.62311 -8.70107,12.74922 -2.55073,7.57178 -5.87933,6.79908 29.28873,6.79908 25.7854,0 30.66667,-0.14799 30.66667,-0.92977 z m 171.6667,73.25774 c -13.846,-2.26756 -25.5599,-7.91007 -35.1894,-16.95056 -8.7008,-8.16847 -14.1705,-17.51035 -17.591,-30.04407 -1.8088,-6.62764 -1.6156,-23.78756 0.3489,-31 4.222,-15.50068 14.4295,-28.83376 28.4315,-37.13736 5.9106,-3.50518 15.5438,-7.12004 22.1658,-8.31766 11.3368,-2.05033 26.7925,-1.24833 36.8342,1.91134 21.6808,6.82201 37.2839,22.85427 43.0816,44.26665 1.9316,7.13348 1.7741,24.70201 -0.2856,31.87371 -8.2323,28.66374 -33.6061,46.62345 -65.4627,46.33482 -3.85,-0.0349 -9.4,-0.45647 -12.3333,-0.93687 z m 18.5389,-27.72408 c 12.4387,-1.8925 21.5377,-10.30719 24.7741,-22.91062 1.3321,-5.18756 1.3462,-17.49534 0.026,-22.5644 -3.779,-14.50889 -15.071,-23.14179 -30.2424,-23.12095 -9.7919,0.0135 -17.1662,2.88866 -23.1634,9.03132 -6.087,6.23471 -8.933,14.20272 -8.933,25.00984 0,8.04555 0.8231,12.46258 3.3148,17.78705 4.8207,10.30177 15.1346,16.74207 27.8908,17.41591 0.8464,0.0447 3.6964,-0.24696 6.3333,-0.64815 z M 342.66667,216.66666 v -80 h 18 18 V 168.33333 200 h 37 37 v -31.66667 -31.66667 h 18 18 v 80 80 h -18 -18 v -33 -33 h -37 -37 v 33 33 h -18 -18 z m 481.7888,79.56656 C 824.20493,295.98273 824,257.87778 824,211.55555 v -84.22222 h 17.6692 17.66927 l -0.16927,84.5 -0.1692,84.5 -17.04453,0.17767 c -9.37454,0.0977 -17.24954,-0.0273 -17.5,-0.27778 z m 213.32233,-0.011 c -0.2445,-0.24444 -0.4445,-38.34444 -0.4445,-84.66667 V 127.33333 H 1054.6667 1072 V 212 296.66666 h -16.8889 c -9.2889,0 -17.0889,-0.2 -17.3333,-0.44444 z"
         id="path241" />
    </g>
  </g>
</svg>
